<svg id="line" viewBox="0 0 32 32" xmlns="http://www.w3.org/2000/svg"><path d="m7 19.5c-.2763672 0-.5.2236328-.5.5v9c0 .8271484.6728516 1.5 1.5 1.5h6c.2763672 0 .5-.2236328.5-.5s-.2236328-.5-.5-.5h-6c-.2758789 0-.5-.2241211-.5-.5v-9c0-.2763672-.2236328-.5-.5-.5z"/><path d="m18 30.5h6c.8271484 0 1.5-.6728516 1.5-1.5v-4c0-.2763672-.2236328-.5-.5-.5s-.5.2236328-.5.5v4c0 .2758789-.2241211.5-.5.5h-6c-.2763672 0-.5.2236328-.5.5s.2236328.5.5.5z"/><path d="m7 6.5c.2763672 0 .5-.2236328.5-.5v-3c0-.2758789.2241211-.5.5-.5h5.5505981c.2322998 1.1397095 1.2421875 2 2.4494019 2s2.2171021-.8602905 2.4494019-2h5.5505981c.2758789 0 .5.2241211.5.5v10c0 .2763672.2236328.5.5.5s.5-.2236328.5-.5v-10c0-.8271484-.6728516-1.5-1.5-1.5h-16c-.8271484 0-1.5.6728516-1.5 1.5v3c0 .2763672.2236328.5.5.5zm10.4145508-4c-.206543.5820312-.7626953 1-1.4145508 1s-1.2080078-.4179688-1.4145508-1z"/><path d="m18.5 28c0-.2763672-.2236328-.5-.5-.5h-4c-.2763672 0-.5.2236328-.5.5s.2236328.5.5.5h4c.2763672 0 .5-.2236328.5-.5z"/><path d="m7 16.5h5c.8271484 0 1.5-.6728516 1.5-1.5v-2c0-.8271484-.6728516-1.5-1.5-1.5h-.5v-.5c0-.8271484-.6728516-1.5-1.5-1.5h-1c-.2763672 0-.5.2236328-.5.5v1.5h-1.5c-.2763672 0-.5.2236328-.5.5v4c0 .2763672.2236328.5.5.5zm2.5-4.5v-1.5h.5c.2758789 0 .5.2241211.5.5v1c0 .2763672.2236328.5.5.5h1c.2758789 0 .5.2241211.5.5v2c0 .2758789-.2241211.5-.5.5h-2.5zm-2 .5h1v3h-1z"/><path d="m5 18.5h6.8818359l1.8945312.9472656c.0708008.0351562.1469727.0527344.2236328.0527344.0913086 0 .1826172-.0249023.2626953-.074707.1474609-.0913086.2373047-.2519531.2373047-.425293v-.5h.5c.8271484 0 1.5-.6728516 1.5-1.5v-8c0-.8271484-.6728516-1.5-1.5-1.5h-9.9999999c-.8271484 0-1.5.6728516-1.5 1.5v8c0 .8271484.6728516 1.5 1.5 1.5zm-.5-9.5c0-.2758789.2241211-.5.5-.5h10c.2758789 0 .5.2241211.5.5v8c0 .2758789-.2241211.5-.5.5h-1c-.2763672 0-.5.2236328-.5.5v.190918l-1.2763672-.6381836c-.0693359-.034668-.1459961-.0527344-.2236328-.0527344h-7c-.2758789 0-.5-.2241211-.5-.5z"/><path d="m17.5 16v6c0 .8271484.6728516 1.5 1.5 1.5h.5v.5c0 .1733398.0898438.3339844.2373047.425293.0800781.0498047.1713867.074707.2626953.074707.0766602 0 .152832-.0175781.2236328-.0527344l1.8945312-.9472656h4.8818359c.8271484 0 1.5-.6728516 1.5-1.5v-6c0-.8271484-.6728516-1.5-1.5-1.5h-8c-.8271484 0-1.5.6728516-1.5 1.5zm10 0v6c0 .2758789-.2241211.5-.5.5h-5c-.0776367 0-.1542969.0180664-.2236328.0527344l-1.2763672.6381836v-.190918c0-.2763672-.2236328-.5-.5-.5h-1c-.2758789 0-.5-.2241211-.5-.5v-6c0-.2758789.2241211-.5.5-.5h8c.2758789 0 .5.2241211.5.5z"/><path d="m22.6464844 20.9140625c.0976562.0976562.2255859.1464844.3535156.1464844s.2558594-.0488281.3535156-.1464844l1.4140625-1.4140625c.2832031-.2832031.4394531-.6601562.4394531-1.0605469 0-.4008789-.1557617-.7773438-.4389648-1.0605469-.4604492-.4599609-1.2094727-.5625-1.7680664-.2631836-.5585938-.2993164-1.3081055-.1962891-1.7675781.2626953-.2832031.2832031-.4394531.6601562-.4394531 1.0610352 0 .4003906.15625.7773438.4394531 1.0605469zm-.706543-2.828125c.0942383-.0947266.2192383-.1464844.3530273-.1464844.1333008 0 .2587891.0522461.3535156.1464844.1953125.1953125.5117188.1953125.7070312 0 .1904297-.1884766.519043-.1884766.706543 0q.0004883 0 .0004883.0004883c.0947266.0942383.1464844.2192383.1464844.3530273 0 .1333008-.0522461.2587891-.1464844.3535156l-1.0605469 1.0605469-1.0605469-1.0605469c-.0942383-.0947266-.1464844-.2202148-.1464844-.3535156 0-.1337891.0517578-.2587891.1469727-.3535156z"/><circle cx="16" cy="30" r=".5"/></svg>