<svg xmlns="http://www.w3.org/2000/svg" xmlns:xlink="http://www.w3.org/1999/xlink" width="500" zoomAndPan="magnify" viewBox="0 0 375 374.999991" height="500" preserveAspectRatio="xMidYMid meet" version="1.0"><defs><g/><clipPath id="1af3000980"><path d="M 194.125 120.925781 L 268.546875 120.925781 L 268.546875 168.398438 L 194.125 168.398438 Z M 194.125 120.925781 " clip-rule="nonzero"/></clipPath><clipPath id="8b6109b737"><path d="M 202.917969 147.703125 L 272.078125 147.703125 L 272.078125 164.765625 L 202.917969 164.765625 Z M 202.917969 147.703125 " clip-rule="nonzero"/></clipPath><clipPath id="445bccd10f"><path d="M 120.492188 119.089844 L 194.257812 119.089844 L 194.257812 168.398438 L 120.492188 168.398438 Z M 120.492188 119.089844 " clip-rule="nonzero"/></clipPath><clipPath id="df831d0e1b"><path d="M 116.402344 145 L 186 145 L 186 165 L 116.402344 165 Z M 116.402344 145 " clip-rule="nonzero"/></clipPath><clipPath id="71e998e098"><path d="M 220 78.398438 L 226 78.398438 L 226 84 L 220 84 Z M 220 78.398438 " clip-rule="nonzero"/></clipPath><clipPath id="3016107ec3"><path d="M 96.507812 27.449219 L 292.773438 27.449219 L 292.773438 231 L 96.507812 231 Z M 96.507812 27.449219 " clip-rule="nonzero"/></clipPath><clipPath id="d2e90ad1de"><path d="M 70.835938 16.820312 L 289.703125 16.820312 L 289.703125 243.035156 L 70.835938 243.035156 Z M 70.835938 16.820312 " clip-rule="nonzero"/></clipPath></defs><g fill="#daa520" fill-opacity="1"><g transform="translate(9.466767, 277.580255)"><g><path d="M 15.953125 0 L 23.796875 0 L 23.796875 -0.328125 L 13.765625 -13.03125 L 22.9375 -25.53125 L 22.9375 -25.90625 L 15.421875 -25.90625 L 8.25 -15.84375 L 8.25 -25.90625 L 1.921875 -25.90625 L 1.921875 0 L 8.25 0 L 8.25 -10.03125 Z M 15.953125 0 "/></g></g></g><g fill="#daa520" fill-opacity="1"><g transform="translate(33.81018, 277.580255)"><g><path d="M 10.65625 -26.203125 L 0.296875 0 L 7.0625 0 L 8.515625 -3.8125 L 17.359375 -3.8125 L 18.796875 0 L 25.9375 0 L 15.171875 -26.203125 Z M 12.953125 -15.765625 L 14.953125 -10.140625 L 15.09375 -9.6875 L 10.796875 -9.6875 L 11.03125 -10.28125 Z M 12.953125 -15.765625 "/></g></g></g><g fill="#daa520" fill-opacity="1"><g transform="translate(59.707426, 277.580255)"><g><path d="M 13.6875 -15.875 L 6.875 -25.90625 L 1.84375 -25.90625 L 1.84375 0 L 8.171875 0 L 8.171875 -12.875 L 11.90625 -7.28125 L 15.421875 -7.28125 L 19.171875 -12.796875 L 19.171875 0 L 25.453125 0 L 25.453125 -25.90625 L 20.5 -25.90625 Z M 13.6875 -15.875 "/></g></g></g><g fill="#daa520" fill-opacity="1"><g transform="translate(87.158504, 277.580255)"><g><path d="M 11.90625 -26.125 L 1.84375 -26.125 L 1.84375 0 L 8.140625 0 L 8.140625 -8.765625 L 9.171875 -8.765625 L 14.578125 0 L 21.3125 0 L 21.3125 -1.1875 L 15.765625 -9.390625 C 19.171875 -11.03125 20.828125 -14.359375 20.828125 -17.5 C 20.828125 -21.796875 17.828125 -26.125 11.90625 -26.125 Z M 11.765625 -14.5 L 8.140625 -14.5 L 8.140625 -20.046875 L 11.765625 -20.046875 C 13.6875 -20.046875 14.65625 -18.609375 14.65625 -17.234375 C 14.65625 -15.90625 13.65625 -14.5 11.765625 -14.5 Z M 11.765625 -14.5 "/></g></g></g><g fill="#daa520" fill-opacity="1"><g transform="translate(109.652117, 277.580255)"><g><path d="M 10.65625 -26.203125 L 0.296875 0 L 7.0625 0 L 8.515625 -3.8125 L 17.359375 -3.8125 L 18.796875 0 L 25.9375 0 L 15.171875 -26.203125 Z M 12.953125 -15.765625 L 14.953125 -10.140625 L 15.09375 -9.6875 L 10.796875 -9.6875 L 11.03125 -10.28125 Z M 12.953125 -15.765625 "/></g></g></g><g fill="#daa520" fill-opacity="1"><g transform="translate(135.549362, 277.580255)"><g><path d="M 15.6875 -25.90625 L 15.6875 -12.953125 L 6.734375 -25.90625 L 1.84375 -25.90625 L 1.84375 0 L 8.140625 0 L 8.140625 -12.609375 L 16.984375 0 L 21.9375 0 L 21.9375 -25.90625 Z M 15.6875 -25.90625 "/></g></g></g><g fill="#daa520" fill-opacity="1"><g transform="translate(159.448825, 277.580255)"><g/></g></g><g fill="#daa520" fill-opacity="1"><g transform="translate(168.734835, 277.580255)"><g><path d="M 16.5 0 L 16.5 -5.65625 L 12.203125 -5.65625 L 12.203125 -20.28125 L 16.5 -20.28125 L 16.5 -26.046875 L 1.59375 -26.046875 L 1.59375 -20.28125 L 5.890625 -20.28125 L 5.890625 -5.65625 L 1.59375 -5.65625 L 1.59375 0 Z M 16.5 0 "/></g></g></g><g fill="#daa520" fill-opacity="1"><g transform="translate(186.640935, 277.580255)"><g><path d="M 15.6875 -25.90625 L 15.6875 -12.953125 L 6.734375 -25.90625 L 1.84375 -25.90625 L 1.84375 0 L 8.140625 0 L 8.140625 -12.609375 L 16.984375 0 L 21.9375 0 L 21.9375 -25.90625 Z M 15.6875 -25.90625 "/></g></g></g><g fill="#daa520" fill-opacity="1"><g transform="translate(210.540409, 277.580255)"><g><path d="M 14.6875 -17.71875 L 21.046875 -17.71875 C 21.046875 -23.6875 16.0625 -26.265625 11.4375 -26.265625 C 5.921875 -26.265625 1.265625 -22.859375 1.546875 -17.171875 L 1.546875 -17.203125 C 2.03125 -11.25 7 -10.328125 11.171875 -9.921875 C 12.140625 -9.8125 15.09375 -9.734375 15.09375 -7.875 C 15.09375 -6.40625 13.4375 -5.8125 11.359375 -5.8125 C 9.921875 -5.8125 7.765625 -6.296875 7.765625 -8.84375 L 1.375 -8.84375 C 1.375 -2.25 7.109375 0.328125 11.328125 0.328125 C 16.25 0.328125 21.5 -2.78125 21.5 -8.171875 C 21.5 -8.734375 21.421875 -9.390625 21.3125 -9.984375 C 20.203125 -14.65625 15.578125 -15.609375 11.90625 -16.09375 C 11.0625 -16.171875 7.984375 -16.203125 7.984375 -18.125 C 7.984375 -19.53125 9.359375 -20.390625 11.328125 -20.390625 C 13.28125 -20.390625 14.6875 -19.46875 14.6875 -17.71875 Z M 14.6875 -17.71875 "/></g></g></g><g fill="#daa520" fill-opacity="1"><g transform="translate(233.699954, 277.580255)"><g><path d="M 21.5 -26.203125 L 1.21875 -26.203125 L 1.21875 -20.28125 L 8.21875 -20.28125 L 8.21875 0 L 14.546875 0 L 14.546875 -20.28125 L 21.5 -20.28125 Z M 21.5 -26.203125 "/></g></g></g><g fill="#daa520" fill-opacity="1"><g transform="translate(256.896486, 277.580255)"><g><path d="M 16.5 0 L 16.5 -5.65625 L 12.203125 -5.65625 L 12.203125 -20.28125 L 16.5 -20.28125 L 16.5 -26.046875 L 1.59375 -26.046875 L 1.59375 -20.28125 L 5.890625 -20.28125 L 5.890625 -5.65625 L 1.59375 -5.65625 L 1.59375 0 Z M 16.5 0 "/></g></g></g><g fill="#daa520" fill-opacity="1"><g transform="translate(274.802597, 277.580255)"><g><path d="M 21.5 -26.203125 L 1.21875 -26.203125 L 1.21875 -20.28125 L 8.21875 -20.28125 L 8.21875 0 L 14.546875 0 L 14.546875 -20.28125 L 21.5 -20.28125 Z M 21.5 -26.203125 "/></g></g></g><g fill="#daa520" fill-opacity="1"><g transform="translate(297.999129, 277.580255)"><g><path d="M 11.90625 0.375 C 16.875 0.375 21.828125 -2.515625 21.828125 -8.328125 L 21.828125 -25.90625 L 15.5 -25.90625 L 15.5 -8.359375 C 15.5 -6.4375 13.65625 -5.46875 11.796875 -5.46875 C 9.984375 -5.46875 8.171875 -6.4375 8.171875 -8.359375 L 8.171875 -25.90625 L 1.84375 -25.90625 L 1.84375 -8.328125 C 1.84375 -2.4375 6.875 0.375 11.90625 0.375 Z M 11.90625 0.375 "/></g></g></g><g fill="#daa520" fill-opacity="1"><g transform="translate(321.67661, 277.580255)"><g><path d="M 21.5 -26.203125 L 1.21875 -26.203125 L 1.21875 -20.28125 L 8.21875 -20.28125 L 8.21875 0 L 14.546875 0 L 14.546875 -20.28125 L 21.5 -20.28125 Z M 21.5 -26.203125 "/></g></g></g><g fill="#daa520" fill-opacity="1"><g transform="translate(344.873142, 277.580255)"><g><path d="M 1.84375 -26.125 L 1.84375 0 L 18.9375 0 L 18.9375 -6.109375 L 8.21875 -6.109375 L 8.21875 -10.25 L 18.6875 -10.25 L 18.6875 -16.390625 L 8.21875 -16.390625 L 8.21875 -20.015625 L 18.90625 -20.015625 L 18.90625 -26.125 Z M 1.84375 -26.125 "/></g></g></g><g fill="#ffffff" fill-opacity="1"><g transform="translate(73.198696, 307.673944)"><g><path d="M 5.71875 -16.78125 C 3.609375 -16.78125 1.890625 -15.0625 1.890625 -12.953125 L 1.890625 -11.65625 L 0.578125 -9.265625 L 1.890625 -9.265625 L 1.890625 -1.953125 C 1.890625 -0.640625 0.796875 0 0.796875 0 L 5.484375 0 C 5.484375 0 4.375 -0.640625 4.375 -1.953125 L 4.375 -9.265625 L 8.265625 -9.265625 L 8.265625 -11.65625 L 4.375 -11.65625 L 4.375 -13.09375 C 4.375 -14.46875 5.109375 -14.78125 6.46875 -14.78125 L 8.015625 -14.78125 C 8.90625 -14.78125 9.34375 -13.984375 9.640625 -13.3125 L 9.640625 -16.78125 Z M 5.71875 -16.78125 "/></g></g></g><g fill="#ffffff" fill-opacity="1"><g transform="translate(85.033125, 307.673944)"><g><path d="M 7.390625 -11.875 C 3.453125 -11.875 0.75 -9.171875 0.75 -5.828125 C 0.75 -2.484375 3.40625 0.234375 7.390625 0.234375 C 11.125 0.234375 14.0625 -2.484375 14.0625 -5.828125 C 14.0625 -9.171875 11.21875 -11.875 7.390625 -11.875 Z M 7.390625 -2.171875 C 4.75 -2.171875 3.21875 -4.03125 3.21875 -5.828125 C 3.21875 -7.828125 4.75 -9.484375 7.390625 -9.484375 C 10.03125 -9.484375 11.578125 -7.75 11.578125 -5.828125 C 11.578125 -3.984375 10.03125 -2.171875 7.390625 -2.171875 Z M 7.390625 -2.171875 "/></g></g></g><g fill="#ffffff" fill-opacity="1"><g transform="translate(103.026466, 307.673944)"><g><path d="M 8.375 -11.875 C 6.296875 -11.875 5.125 -10.609375 4.203125 -8.6875 L 4.203125 -11.65625 L 0.609375 -11.65625 C 0.609375 -11.65625 1.6875 -11 1.6875 -9.6875 L 1.6875 -1.953125 C 1.6875 -0.640625 0.609375 0 0.609375 0 L 5.28125 0 C 5.28125 0 4.1875 -0.640625 4.1875 -1.953125 L 4.1875 -5.984375 C 4.1875 -7.765625 5.96875 -9.484375 8.375 -9.484375 C 10.015625 -9.484375 10.15625 -8.609375 10.15625 -6.5625 L 12.65625 -6.359375 C 12.5625 -9.421875 11.0625 -11.875 8.375 -11.875 Z M 8.375 -11.875 "/></g></g></g><g fill="#ffffff" fill-opacity="1"><g transform="translate(119.370096, 307.673944)"><g/></g></g><g fill="#ffffff" fill-opacity="1"><g transform="translate(129.158893, 307.673944)"><g><path d="M 0.609375 0 L 5.28125 0 C 5.28125 0 4.1875 -0.640625 4.1875 -1.953125 L 4.203125 -11.65625 L 0.609375 -11.65625 C 0.609375 -11.65625 1.6875 -11 1.6875 -9.6875 L 1.6875 -1.953125 C 1.6875 -0.640625 0.609375 0 0.609375 0 Z M 2.875 -12.78125 C 3.765625 -12.78125 4.1875 -13.421875 4.1875 -14.1875 C 4.1875 -14.984375 3.765625 -15.625 2.875 -15.625 C 2.09375 -15.625 1.6875 -14.984375 1.6875 -14.1875 C 1.6875 -13.421875 2.09375 -12.78125 2.875 -12.78125 Z M 2.875 -12.78125 "/></g></g></g><g fill="#ffffff" fill-opacity="1"><g transform="translate(138.221824, 307.673944)"><g><path d="M 3.515625 -8.296875 C 3.515625 -9.125 4.203125 -9.484375 6.859375 -9.484375 C 9.5625 -9.484375 10.34375 -9.015625 10.34375 -7.703125 L 12.828125 -7.5 C 12.828125 -9.546875 10.875 -11.90625 6.859375 -11.90625 C 2.84375 -11.90625 1.03125 -9.546875 1.03125 -8.296875 C 1.03125 -4.03125 10.46875 -5.03125 10.46875 -3.28125 C 10.46875 -2.484375 9.328125 -2.171875 6.9375 -2.171875 C 4.84375 -2.171875 3.234375 -2.640625 3.234375 -4.53125 L 0.765625 -4.734375 C 0.765625 -2.140625 3.40625 0.234375 6.9375 0.234375 C 11.8125 0.234375 12.9375 -2.140625 12.9375 -3.28125 C 12.9375 -7.4375 3.515625 -6.09375 3.515625 -8.296875 Z M 3.515625 -8.296875 "/></g></g></g><g fill="#ffffff" fill-opacity="1"><g transform="translate(155.203333, 307.673944)"><g><path d="M 0.578125 0 L 5.21875 0 C 5.21875 0 4.140625 -0.640625 4.140625 -1.953125 L 4.15625 -16.78125 L 0.578125 -16.78125 C 0.578125 -16.78125 1.65625 -16.125 1.65625 -14.8125 L 1.65625 -1.953125 C 1.65625 -0.640625 0.578125 0 0.578125 0 Z M 0.578125 0 "/></g></g></g><g fill="#ffffff" fill-opacity="1"><g transform="translate(164.200266, 307.673944)"><g><path d="M 13.734375 -1.953125 L 13.734375 -5.828125 C 13.734375 -7.921875 12.453125 -9.421875 11.328125 -10.40625 C 10.234375 -11.421875 8.859375 -11.875 6.96875 -11.875 C 2.484375 -11.875 1.671875 -8.25 1.671875 -8.25 L 2.734375 -7.59375 C 2.734375 -7.59375 3.5625 -9.484375 6.96875 -9.484375 C 9.65625 -9.484375 11.265625 -8.75 11.265625 -6.21875 L 11.265625 -6.078125 C 10.3125 -6.34375 7.53125 -7.0625 4.859375 -7.0625 C 2.6875 -7.0625 0.65625 -5.78125 0.65625 -3.828125 C 0.65625 -0.90625 4.265625 0.21875 6.96875 0.21875 C 8.953125 0.21875 10.125 -0.6875 11.265625 -2.140625 L 11.4375 0.015625 L 15.21875 0.015625 C 15.21875 0.015625 13.734375 -0.640625 13.734375 -1.953125 Z M 6.96875 -2.171875 C 5.109375 -2.171875 2.921875 -2.0625 2.921875 -3.625 C 2.921875 -6.515625 9.421875 -5.171875 11.125 -4.84375 C 10.828125 -3.21875 9.3125 -2.171875 6.96875 -2.171875 Z M 6.96875 -2.171875 "/></g></g></g><g fill="#ffffff" fill-opacity="1"><g transform="translate(182.919469, 307.673944)"><g><path d="M 18.640625 0 L 23.3125 0 C 23.3125 0 22.21875 -0.640625 22.21875 -1.953125 L 22.21875 -5.9375 C 22.203125 -9.234375 20.921875 -11.875 17.40625 -11.875 C 15.109375 -11.875 13.578125 -10.34375 12.734375 -8.15625 C 12.28125 -10.34375 11.09375 -11.875 8.359375 -11.875 C 6.265625 -11.875 5.078125 -10.609375 4.15625 -8.6875 L 4.15625 -11.65625 L 0.578125 -11.65625 C 0.578125 -11.65625 1.65625 -11.015625 1.65625 -9.6875 L 1.65625 -1.984375 C 1.65625 -0.65625 0.578125 0 0.578125 0 L 5.234375 0 C 5.234375 0 4.140625 -0.640625 4.140625 -1.953125 L 4.15625 -5.984375 C 4.15625 -7.765625 5.703125 -9.484375 8.359375 -9.484375 C 10.578125 -9.484375 10.6875 -7.609375 10.6875 -6.15625 L 10.6875 -1.984375 C 10.6875 -0.65625 9.59375 0 9.59375 0 L 14.28125 0 C 14.28125 0 13.171875 -0.640625 13.171875 -1.953125 L 13.171875 -5.9375 C 13.171875 -5.9375 13.171875 -5.9375 13.171875 -5.96875 C 13.171875 -7.703125 14.734375 -9.484375 17.40625 -9.484375 C 19.609375 -9.484375 19.734375 -7.71875 19.734375 -6.15625 L 19.734375 -1.984375 C 19.734375 -0.65625 18.640625 0 18.640625 0 Z M 18.640625 0 "/></g></g></g><g fill="#ffffff" fill-opacity="1"><g transform="translate(209.909202, 307.673944)"><g><path d="M 0.609375 0 L 5.28125 0 C 5.28125 0 4.1875 -0.640625 4.1875 -1.953125 L 4.203125 -11.65625 L 0.609375 -11.65625 C 0.609375 -11.65625 1.6875 -11 1.6875 -9.6875 L 1.6875 -1.953125 C 1.6875 -0.640625 0.609375 0 0.609375 0 Z M 2.875 -12.78125 C 3.765625 -12.78125 4.1875 -13.421875 4.1875 -14.1875 C 4.1875 -14.984375 3.765625 -15.625 2.875 -15.625 C 2.09375 -15.625 1.6875 -14.984375 1.6875 -14.1875 C 1.6875 -13.421875 2.09375 -12.78125 2.875 -12.78125 Z M 2.875 -12.78125 "/></g></g></g><g fill="#ffffff" fill-opacity="1"><g transform="translate(218.972132, 307.673944)"><g><path d="M 12.890625 -5 C 12.890625 -5 11.8125 -2.171875 7.375 -2.171875 C 4.8125 -2.171875 3.21875 -3.5625 3.21875 -5.828125 C 3.21875 -8.265625 4.46875 -9.484375 7.296875 -9.484375 C 9.96875 -9.484375 11.46875 -8.71875 11.46875 -6.953125 L 13.953125 -6.78125 C 13.953125 -9.640625 10.78125 -11.875 7.375 -11.875 C 3.40625 -11.875 0.71875 -9.171875 0.71875 -5.828125 C 0.71875 -2.484375 3.671875 0.234375 7.375 0.234375 C 12.65625 0.234375 13.96875 -4.328125 13.96875 -4.328125 Z M 12.890625 -5 "/></g></g></g><g fill="#ffffff" fill-opacity="1"><g transform="translate(236.855481, 307.673944)"><g/></g></g><g fill="#ffffff" fill-opacity="1"><g transform="translate(246.644276, 307.673944)"><g><path d="M 3.515625 -8.296875 C 3.515625 -9.125 4.203125 -9.484375 6.859375 -9.484375 C 9.5625 -9.484375 10.34375 -9.015625 10.34375 -7.703125 L 12.828125 -7.5 C 12.828125 -9.546875 10.875 -11.90625 6.859375 -11.90625 C 2.84375 -11.90625 1.03125 -9.546875 1.03125 -8.296875 C 1.03125 -4.03125 10.46875 -5.03125 10.46875 -3.28125 C 10.46875 -2.484375 9.328125 -2.171875 6.9375 -2.171875 C 4.84375 -2.171875 3.234375 -2.640625 3.234375 -4.53125 L 0.765625 -4.734375 C 0.765625 -2.140625 3.40625 0.234375 6.9375 0.234375 C 11.8125 0.234375 12.9375 -2.140625 12.9375 -3.28125 C 12.9375 -7.4375 3.515625 -6.09375 3.515625 -8.296875 Z M 3.515625 -8.296875 "/></g></g></g><g fill="#ffffff" fill-opacity="1"><g transform="translate(263.625785, 307.673944)"><g><path d="M 7.125 -9.265625 L 8.234375 -11.65625 L 4.3125 -11.65625 L 4.3125 -15.3125 L 1.796875 -15.3125 L 1.796875 -11.65625 L 0.71875 -11.65625 L 0.71875 -9.265625 L 1.796875 -9.265625 L 1.796875 0 L 5.390625 0 C 5.390625 0 4.296875 -0.640625 4.296875 -1.953125 L 4.3125 -9.265625 Z M 7.125 -9.265625 "/></g></g></g><g fill="#ffffff" fill-opacity="1"><g transform="translate(275.240256, 307.673944)"><g><path d="M 12.984375 -1.953125 L 12.984375 -9.6875 C 12.984375 -11 14.0625 -11.65625 14.0625 -11.65625 L 9.421875 -11.65625 C 9.421875 -11.65625 10.515625 -11 10.515625 -9.6875 L 10.5 -5.65625 C 10.5 -3.828125 9.203125 -2.15625 6.3125 -2.15625 C 4.25 -2.15625 3.9375 -3.921875 3.9375 -5.484375 L 3.9375 -9.6875 C 3.9375 -11 5.03125 -11.65625 5.03125 -11.65625 L 0.390625 -11.65625 C 0.390625 -11.65625 1.46875 -11 1.46875 -9.6875 L 1.46875 -5.71875 C 1.5 -2.421875 3.109375 0.234375 6.3125 0.234375 C 8.40625 0.234375 9.5625 -1.0625 10.5 -2.953125 L 10.5 0 L 14.0625 0 C 14.0625 0 12.984375 -0.640625 12.984375 -1.953125 Z M 12.984375 -1.953125 "/></g></g></g><g fill="#ffffff" fill-opacity="1"><g transform="translate(293.123616, 307.673944)"><g><path d="M 10.015625 0.015625 L 14.671875 0.015625 C 14.671875 0.015625 13.59375 -0.640625 13.59375 -1.953125 L 13.59375 -16.78125 L 10.015625 -16.78125 C 10.015625 -16.78125 11.109375 -16.125 11.109375 -14.8125 L 11.109375 -8.671875 C 10.1875 -10.578125 8.953125 -11.875 6.84375 -11.875 C 3.359375 -11.875 0.765625 -9.171875 0.765625 -5.828125 C 0.765625 -2.484375 3.25 0.21875 6.84375 0.21875 C 8.953125 0.21875 10.1875 -1.078125 11.109375 -2.96875 C 11.109375 -2.328125 11.109375 -1.953125 11.109375 -1.953125 C 11.109375 -0.640625 10.015625 0.015625 10.015625 0.015625 Z M 6.84375 -2.171875 C 4.8125 -2.171875 3.234375 -3.65625 3.234375 -5.828125 C 3.234375 -7.96875 4.734375 -9.484375 6.84375 -9.484375 C 9.96875 -9.484375 11.109375 -8.09375 11.109375 -5.828125 C 11.109375 -3.8125 9.984375 -2.171875 6.84375 -2.171875 Z M 6.84375 -2.171875 "/></g></g></g><g fill="#ffffff" fill-opacity="1"><g transform="translate(311.578884, 307.673944)"><g><path d="M 10.015625 -11.65625 L 10.984375 -11.265625 C 11.5 -11.015625 11.765625 -10.40625 11.546875 -9.875 L 8.5625 -2.390625 L 7.65625 -2.390625 L 4.65625 -9.875 C 4.4375 -10.40625 4.703125 -11.015625 5.234375 -11.265625 L 6.203125 -11.65625 L 0 -11.65625 C 1.125 -11.125 2 -10.203125 2.46875 -9.046875 L 6.046875 0 L 7.640625 0 L 7.125 1.25 C 6.484375 2.859375 4.953125 3.890625 3.234375 3.890625 L 3.234375 5.140625 C 6.1875 5.140625 8.84375 3.34375 9.9375 0.59375 L 10.15625 0.015625 L 10.15625 0 L 13.75 -9.046875 C 14.21875 -10.203125 15.09375 -11.125 16.234375 -11.65625 Z M 10.015625 -11.65625 "/></g></g></g><g clip-path="url(#1af3000980)"><path fill="#daa520" d="M 246.019531 120.996094 L 268.527344 144.621094 C 218.4375 144.722656 194.128906 168.507812 194.128906 168.507812 C 194.128906 168.507812 206.417969 129.539062 246.019531 120.996094 " fill-opacity="1" fill-rule="nonzero"/></g><g clip-path="url(#8b6109b737)"><path fill="#ffffff" d="M 272.078125 163.070312 C 239.105469 155.035156 215.03125 160.382812 202.933594 164.667969 C 212.777344 158.441406 230.882812 149.78125 257.539062 147.808594 L 272.078125 163.070312 " fill-opacity="1" fill-rule="nonzero"/></g><g clip-path="url(#445bccd10f)"><path fill="#daa520" d="M 143.941406 119.199219 L 120.621094 142.015625 C 170.675781 143.882812 194.128906 168.507812 194.128906 168.507812 C 194.128906 168.507812 183.21875 129.132812 143.941406 119.199219 " fill-opacity="1" fill-rule="nonzero"/></g><g clip-path="url(#df831d0e1b)"><path fill="#ffffff" d="M 116.421875 160.332031 C 149.65625 153.460938 173.527344 159.652344 185.46875 164.363281 C 175.851562 157.789062 158.058594 148.5 131.488281 145.589844 L 116.421875 160.332031 " fill-opacity="1" fill-rule="nonzero"/></g><path fill="#ffffff" d="M 251.269531 107.273438 L 248.039062 115.71875 C 227.132812 119.953125 213.46875 133.160156 205.675781 143.511719 C 212.261719 131.527344 226.113281 113.230469 251.269531 107.273438 " fill-opacity="1" fill-rule="nonzero"/><path fill="#ffffff" d="M 137.84375 104.949219 L 140.796875 113.554688 C 162.300781 118.246094 175.890625 132.28125 183.472656 143.121094 C 177.203125 130.695312 163.640625 111.472656 137.84375 104.949219 " fill-opacity="1" fill-rule="nonzero"/><path fill="#ffffff" d="M 194.71875 135.046875 C 194.71875 135.046875 183.027344 114.273438 166.839844 109.324219 C 166.839844 109.324219 190.25 129.5 194.171875 166.191406 C 199.382812 129.660156 223.488281 110.320312 223.488281 110.320312 C 207.132812 114.699219 194.71875 135.046875 194.71875 135.046875 " fill-opacity="1" fill-rule="nonzero"/><path fill="#ffffff" d="M 202.671875 115.265625 C 202.753906 110.628906 199.414062 106.808594 195.21875 106.734375 C 191.019531 106.660156 187.550781 110.359375 187.46875 115 C 187.386719 119.636719 190.722656 123.457031 194.921875 123.53125 C 199.121094 123.605469 202.589844 119.90625 202.671875 115.265625 " fill-opacity="1" fill-rule="nonzero"/><path fill="#daa520" d="M 205.164062 87.472656 L 191.421875 87.230469 L 191.179688 100.972656 L 204.921875 101.214844 L 205.164062 87.472656 " fill-opacity="1" fill-rule="nonzero"/><path fill="#daa520" d="M 212.15625 80.722656 L 205.285156 80.605469 L 205.164062 87.472656 L 212.035156 87.59375 L 212.15625 80.722656 " fill-opacity="1" fill-rule="nonzero"/><path fill="#ffffff" d="M 225.71875 97.269531 L 218.851562 97.148438 L 218.730469 104.015625 L 225.597656 104.136719 L 225.71875 97.269531 " fill-opacity="1" fill-rule="nonzero"/><path fill="#ffffff" d="M 213.5625 94.492188 L 210.261719 94.4375 L 210.203125 97.738281 L 213.503906 97.796875 L 213.5625 94.492188 " fill-opacity="1" fill-rule="nonzero"/><path fill="#ffffff" d="M 245.921875 89.175781 L 239.585938 89.0625 L 239.472656 95.402344 L 245.8125 95.511719 L 245.921875 89.175781 " fill-opacity="1" fill-rule="nonzero"/><path fill="#f8b31a" d="M 233.910156 103.664062 L 230.609375 103.605469 L 230.550781 106.90625 L 233.851562 106.964844 L 233.910156 103.664062 " fill-opacity="1" fill-rule="nonzero"/><g clip-path="url(#71e998e098)"><path fill="#ffffff" d="M 225.78125 78.488281 L 220.832031 78.402344 L 220.742188 83.351562 L 225.695312 83.4375 L 225.78125 78.488281 " fill-opacity="1" fill-rule="nonzero"/></g><path fill="#f8b31a" d="M 231.679688 85.4375 L 226.675781 85.351562 L 226.589844 90.351562 L 231.589844 90.441406 L 231.679688 85.4375 " fill-opacity="1" fill-rule="nonzero"/><path fill="#ffffff" d="M 194.976562 216.046875 C 147.546875 216.046875 109.097656 177.597656 109.097656 130.167969 C 109.097656 82.738281 147.546875 44.289062 194.976562 44.289062 C 230.722656 44.289062 261.363281 66.128906 274.289062 97.195312 C 261.371094 60.394531 226.324219 34.007812 185.109375 34.007812 C 132.917969 34.007812 90.605469 76.316406 90.605469 128.507812 C 90.605469 180.703125 132.917969 223.011719 185.109375 223.011719 C 215.128906 223.011719 241.875 209.011719 259.1875 187.1875 C 243.457031 204.890625 220.519531 216.046875 194.976562 216.046875 " fill-opacity="1" fill-rule="nonzero"/><g clip-path="url(#3016107ec3)"><path fill="#daa520" d="M 195.765625 33.730469 C 248.054688 40.027344 285.339844 87.519531 279.042969 139.808594 C 272.742188 192.097656 225.25 229.378906 172.960938 223.082031 C 137.910156 218.859375 109.601562 196.125 96.644531 165.84375 C 109.761719 199.746094 140.6875 225.480469 179.296875 230.128906 C 235.003906 236.835938 285.605469 197.117188 292.3125 141.40625 C 299.023438 85.699219 259.300781 35.097656 203.589844 28.390625 C 164.984375 23.738281 128.832031 41.394531 108.042969 71.214844 C 127.816406 44.875 160.714844 29.507812 195.765625 33.730469 " fill-opacity="1" fill-rule="nonzero"/></g><g clip-path="url(#d2e90ad1de)"><path fill="#daa520" d="M 179.128906 23.585938 C 120.925781 30.597656 79.421875 83.464844 86.433594 141.671875 C 93.441406 199.878906 146.308594 241.378906 204.515625 234.371094 C 243.535156 229.671875 275.046875 204.359375 289.46875 170.652344 C 274.867188 208.390625 240.445312 237.039062 197.464844 242.214844 C 135.453125 249.683594 79.125 205.464844 71.65625 143.449219 C 64.1875 81.4375 108.40625 25.109375 170.417969 17.640625 C 213.398438 12.464844 253.640625 32.121094 276.785156 65.3125 C 254.769531 35.992188 218.148438 18.886719 179.128906 23.585938 " fill-opacity="1" fill-rule="nonzero"/></g></svg>