<svg xmlns="http://www.w3.org/2000/svg" xmlns:xlink="http://www.w3.org/1999/xlink" width="500" zoomAndPan="magnify" viewBox="0 0 375 374.999991" height="500" preserveAspectRatio="xMidYMid meet" version="1.0"><defs><clipPath id="7356080073"><path d="M 219 184 L 331.53125 184 L 331.53125 255.839844 L 219 255.839844 Z M 219 184 " clip-rule="nonzero"/></clipPath><clipPath id="c59409f7f6"><path d="M 297.414062 184.535156 C 239.859375 196.949219 220.773438 252.242188 219.664062 255.617188 L 219.78125 255.617188 C 222.542969 253.039062 259.003906 220.113281 331.148438 219.964844 L 297.414062 184.550781 Z M 297.414062 184.535156 " clip-rule="nonzero"/></clipPath><clipPath id="2c8a2d46e5"><path d="M 232.371094 224.597656 L 336.964844 224.597656 L 336.964844 250.40625 L 232.371094 250.40625 Z M 232.371094 224.597656 " clip-rule="nonzero"/></clipPath><clipPath id="edbf8739ea"><path d="M 336.472656 247.609375 C 287.039062 235.570312 250.9375 243.578125 232.8125 250.007812 C 247.5625 240.667969 274.714844 227.683594 314.6875 224.730469 L 336.488281 247.609375 " clip-rule="nonzero"/></clipPath><clipPath id="3719a4de0e"><path d="M 109 181.128906 L 220 181.128906 L 220 255.839844 L 109 255.839844 Z M 109 181.128906 " clip-rule="nonzero"/></clipPath><clipPath id="07bcf5d827"><path d="M 144.367188 181.835938 L 109.402344 216.050781 C 181.566406 218.734375 216.84375 252.976562 219.453125 255.601562 L 219.558594 255.601562 C 218.566406 252.210938 201.460938 196.273438 144.351562 181.835938 Z M 144.367188 181.835938 " clip-rule="nonzero"/></clipPath><clipPath id="6a87f071b5"><path d="M 103 221 L 207 221 L 207 250 L 103 250 Z M 103 221 " clip-rule="nonzero"/></clipPath><clipPath id="698ce4a84a"><path d="M 103.105469 243.5 C 152.929688 233.203125 188.71875 242.484375 206.617188 249.542969 C 192.195312 239.695312 165.523438 225.765625 125.6875 221.402344 L 103.105469 243.5 " clip-rule="nonzero"/></clipPath><clipPath id="cdd59aa20d"><path d="M 236.445312 163.46875 L 305.722656 163.46875 L 305.722656 219 L 236.445312 219 Z M 236.445312 163.46875 " clip-rule="nonzero"/></clipPath><clipPath id="fc8eec488a"><path d="M 305.289062 163.949219 L 300.445312 176.617188 C 269.09375 182.960938 248.613281 202.765625 236.933594 218.285156 C 246.816406 200.308594 267.578125 172.886719 305.289062 163.949219 " clip-rule="nonzero"/></clipPath><clipPath id="97d4835a3f"><path d="M 135 160 L 203.84375 160 L 203.84375 217.804688 L 135 217.804688 Z M 135 160 " clip-rule="nonzero"/></clipPath><clipPath id="6f79e5c145"><path d="M 135.222656 160.472656 L 139.644531 173.378906 C 171.878906 180.410156 192.269531 201.445312 203.636719 217.714844 C 194.234375 199.078125 173.902344 170.261719 135.222656 160.484375 " clip-rule="nonzero"/></clipPath><clipPath id="43a287c46e"><path d="M 178.035156 167 L 264 167 L 264 253 L 178.035156 253 Z M 178.035156 167 " clip-rule="nonzero"/></clipPath><clipPath id="0eb65d2d98"><path d="M 220.488281 205.601562 C 220.488281 205.601562 202.960938 174.460938 178.6875 167.039062 C 178.6875 167.039062 213.785156 197.292969 219.664062 252.304688 C 227.472656 197.535156 263.621094 168.539062 263.621094 168.539062 C 239.109375 175.105469 220.488281 205.613281 220.488281 205.613281 " clip-rule="nonzero"/></clipPath><clipPath id="705b968d8f"><path d="M 209.277344 163 L 233 163 L 233 189 L 209.277344 189 Z M 209.277344 163 " clip-rule="nonzero"/></clipPath><clipPath id="f03b19831f"><path d="M 232.421875 175.945312 C 232.542969 168.988281 227.535156 163.257812 221.25 163.15625 C 214.96875 163.050781 209.753906 168.597656 209.632812 175.539062 C 209.511719 182.480469 214.519531 188.222656 220.800781 188.328125 C 227.082031 188.433594 232.300781 182.886719 232.421875 175.945312 " clip-rule="nonzero"/></clipPath><clipPath id="6fd7e8aa03"><path d="M 215 133.585938 L 236.445312 133.585938 L 236.445312 155 L 215 155 Z M 215 133.585938 " clip-rule="nonzero"/></clipPath><clipPath id="dd324e0d2f"><path d="M 236.15625 134.261719 L 215.554688 133.902344 L 215.195312 154.503906 L 235.792969 154.863281 L 236.15625 134.261719 " clip-rule="nonzero"/></clipPath><clipPath id="05b2ecb150"><path d="M 236 123 L 247 123 L 247 134.945312 L 236 134.945312 Z M 236 123 " clip-rule="nonzero"/></clipPath><clipPath id="574de68d2e"><path d="M 246.632812 124.144531 L 236.335938 123.964844 L 236.15625 134.261719 L 246.453125 134.441406 L 246.632812 124.144531 " clip-rule="nonzero"/></clipPath><clipPath id="6740cf814f"><path d="M 256 148.527344 L 267 148.527344 L 267 159.394531 L 256 159.394531 Z M 256 148.527344 " clip-rule="nonzero"/></clipPath><clipPath id="5e4eef72fc"><path d="M 266.980469 148.957031 L 256.679688 148.777344 L 256.5 159.078125 L 266.800781 159.257812 L 266.980469 148.957031 " clip-rule="nonzero"/></clipPath><clipPath id="b6f04f3eb8"><path d="M 243.238281 144.453125 L 249 144.453125 L 249 149.886719 L 243.238281 149.886719 Z M 243.238281 144.453125 " clip-rule="nonzero"/></clipPath><clipPath id="6a00be065f"><path d="M 248.75 144.789062 L 243.800781 144.699219 L 243.710938 149.644531 L 248.660156 149.734375 L 248.75 144.789062 " clip-rule="nonzero"/></clipPath><clipPath id="e531fc4ee3"><path d="M 287 136.304688 L 297.574219 136.304688 L 297.574219 147 L 287 147 Z M 287 136.304688 " clip-rule="nonzero"/></clipPath><clipPath id="13a799a9fa"><path d="M 297.265625 136.8125 L 287.761719 136.648438 L 287.59375 146.152344 L 297.101562 146.316406 L 297.265625 136.8125 " clip-rule="nonzero"/></clipPath><clipPath id="177ec3ab5e"><path d="M 274 158.035156 L 279.914062 158.035156 L 279.914062 164 L 274 164 Z M 274 158.035156 " clip-rule="nonzero"/></clipPath><clipPath id="12b9388e4f"><path d="M 279.257812 158.535156 L 274.3125 158.445312 L 274.222656 163.394531 L 279.167969 163.484375 L 279.257812 158.535156 " clip-rule="nonzero"/></clipPath><clipPath id="22ed293fe9"><path d="M 259 120.003906 L 267.6875 120.003906 L 267.6875 129 L 259 129 Z M 259 120.003906 " clip-rule="nonzero"/></clipPath><clipPath id="87db2891ef"><path d="M 267.070312 120.800781 L 259.648438 120.664062 L 259.511719 128.085938 L 266.933594 128.222656 L 267.070312 120.800781 " clip-rule="nonzero"/></clipPath><clipPath id="3073baeb9d"><path d="M 268 131 L 276 131 L 276 139 L 268 139 Z M 268 131 " clip-rule="nonzero"/></clipPath><clipPath id="2ebb5ef733"><path d="M 275.902344 131.21875 L 268.40625 131.085938 L 268.269531 138.582031 L 275.765625 138.714844 L 275.902344 131.21875 " clip-rule="nonzero"/></clipPath><clipPath id="8690d074af"><path d="M 64 54 L 340 54 L 340 338 L 64 338 Z M 64 54 " clip-rule="nonzero"/></clipPath><clipPath id="81e488edc2"><path d="M 220.875 327.042969 C 149.765625 327.042969 92.117188 269.394531 92.117188 198.28125 C 92.117188 127.171875 149.765625 69.523438 220.875 69.523438 C 274.476562 69.523438 320.414062 102.269531 339.800781 148.851562 C 320.429688 93.675781 267.878906 54.109375 206.09375 54.109375 C 127.84375 54.109375 64.410156 117.546875 64.410156 195.792969 C 64.410156 274.042969 127.84375 337.476562 206.09375 337.476562 C 251.101562 337.476562 291.207031 316.488281 317.160156 283.773438 C 293.578125 310.3125 259.183594 327.042969 220.890625 327.042969 " clip-rule="nonzero"/></clipPath><clipPath id="c8af020b65"><path d="M 73 44 L 368 44 L 368 349.566406 L 73 349.566406 Z M 73 44 " clip-rule="nonzero"/></clipPath><clipPath id="cf742da1d6"><path d="M 215.390625 44.574219 C 164.59375 44.574219 118.371094 69.957031 90.527344 109.882812 C 116.914062 74.757812 158.851562 52.65625 204.789062 52.65625 C 210.488281 52.65625 216.257812 53 222.0625 53.691406 C 300.460938 63.136719 356.351562 134.339844 346.90625 212.738281 C 338.167969 285.332031 276.472656 338.632812 205.132812 338.632812 C 199.4375 338.632812 193.664062 338.289062 187.863281 337.597656 C 135.3125 331.269531 92.867188 297.175781 73.4375 251.777344 C 93.105469 302.605469 139.464844 341.195312 197.351562 348.167969 C 203.53125 348.917969 209.675781 349.277344 215.75 349.277344 C 291.75 349.277344 357.476562 292.484375 366.789062 215.148438 C 367.074219 212.796875 367.296875 210.441406 367.476562 208.089844 L 367.476562 185.417969 C 362.171875 114.308594 307.25 54.53125 233.769531 45.683594 C 227.59375 44.933594 221.445312 44.574219 215.375 44.574219 Z M 215.390625 44.574219 " clip-rule="nonzero"/></clipPath><clipPath id="ded7895a67"><path d="M 34.050781 28 L 362.773438 28 L 362.773438 368 L 34.050781 368 Z M 34.050781 28 " clip-rule="nonzero"/></clipPath><clipPath id="047fd06fa6"><path d="M 204.550781 28.339844 C 197.789062 28.339844 190.949219 28.742188 184.070312 29.566406 C 98.054688 39.925781 34.875 112.972656 34.753906 197.457031 L 34.753906 197.984375 C 34.769531 204.65625 35.175781 211.402344 35.984375 218.207031 C 46.34375 304.207031 119.359375 367.375 203.828125 367.507812 L 204.398438 367.507812 C 211.070312 367.492188 217.816406 367.089844 224.59375 366.28125 C 289.035156 358.511719 340.640625 315.574219 362.53125 258.988281 C 340.910156 309.53125 293.667969 347.476562 235.164062 354.523438 C 228.703125 355.304688 222.285156 355.679688 215.929688 355.679688 C 136.527344 355.679688 67.84375 296.351562 58.113281 215.539062 C 47.632812 128.265625 109.855469 49 197.128906 38.488281 C 203.589844 37.707031 210.007812 37.332031 216.347656 37.332031 C 267.488281 37.332031 314.179688 61.953125 343.535156 101.054688 C 312.542969 56.601562 261.101562 28.339844 204.550781 28.339844 Z M 204.550781 28.339844 " clip-rule="nonzero"/></clipPath></defs><g clip-path="url(#7356080073)"><g clip-path="url(#c59409f7f6)"><path fill="#daa520" d="M 27.257812 20.839844 L 375 20.839844 L 375 375.375 L 27.257812 375.375 Z M 27.257812 20.839844 " fill-opacity="1" fill-rule="nonzero"/></g></g><g clip-path="url(#2c8a2d46e5)"><g clip-path="url(#edbf8739ea)"><path fill="#000000" d="M 27.257812 20.839844 L 375 20.839844 L 375 375.375 L 27.257812 375.375 Z M 27.257812 20.839844 " fill-opacity="1" fill-rule="nonzero"/></g></g><g clip-path="url(#3719a4de0e)"><g clip-path="url(#07bcf5d827)"><path fill="#daa520" d="M 27.257812 20.839844 L 375 20.839844 L 375 375.375 L 27.257812 375.375 Z M 27.257812 20.839844 " fill-opacity="1" fill-rule="nonzero"/></g></g><g clip-path="url(#6a87f071b5)"><g clip-path="url(#698ce4a84a)"><path fill="#000000" d="M 27.257812 20.839844 L 375 20.839844 L 375 375.375 L 27.257812 375.375 Z M 27.257812 20.839844 " fill-opacity="1" fill-rule="nonzero"/></g></g><g clip-path="url(#cdd59aa20d)"><g clip-path="url(#fc8eec488a)"><path fill="#000000" d="M 27.257812 20.839844 L 375 20.839844 L 375 375.375 L 27.257812 375.375 Z M 27.257812 20.839844 " fill-opacity="1" fill-rule="nonzero"/></g></g><g clip-path="url(#97d4835a3f)"><g clip-path="url(#6f79e5c145)"><path fill="#000000" d="M 27.257812 20.839844 L 375 20.839844 L 375 375.375 L 27.257812 375.375 Z M 27.257812 20.839844 " fill-opacity="1" fill-rule="nonzero"/></g></g><g clip-path="url(#43a287c46e)"><g clip-path="url(#0eb65d2d98)"><path fill="#000000" d="M 27.257812 20.839844 L 375 20.839844 L 375 375.375 L 27.257812 375.375 Z M 27.257812 20.839844 " fill-opacity="1" fill-rule="nonzero"/></g></g><g clip-path="url(#705b968d8f)"><g clip-path="url(#f03b19831f)"><path fill="#000000" d="M 27.257812 20.839844 L 375 20.839844 L 375 375.375 L 27.257812 375.375 Z M 27.257812 20.839844 " fill-opacity="1" fill-rule="nonzero"/></g></g><g clip-path="url(#6fd7e8aa03)"><g clip-path="url(#dd324e0d2f)"><path fill="#daa520" d="M 27.257812 20.839844 L 375 20.839844 L 375 375.375 L 27.257812 375.375 Z M 27.257812 20.839844 " fill-opacity="1" fill-rule="nonzero"/></g></g><g clip-path="url(#05b2ecb150)"><g clip-path="url(#574de68d2e)"><path fill="#daa520" d="M 27.257812 20.839844 L 375 20.839844 L 375 375.375 L 27.257812 375.375 Z M 27.257812 20.839844 " fill-opacity="1" fill-rule="nonzero"/></g></g><g clip-path="url(#6740cf814f)"><g clip-path="url(#5e4eef72fc)"><path fill="#000000" d="M 27.257812 20.839844 L 375 20.839844 L 375 375.375 L 27.257812 375.375 Z M 27.257812 20.839844 " fill-opacity="1" fill-rule="nonzero"/></g></g><g clip-path="url(#b6f04f3eb8)"><g clip-path="url(#6a00be065f)"><path fill="#000000" d="M 27.257812 20.839844 L 375 20.839844 L 375 375.375 L 27.257812 375.375 Z M 27.257812 20.839844 " fill-opacity="1" fill-rule="nonzero"/></g></g><g clip-path="url(#e531fc4ee3)"><g clip-path="url(#13a799a9fa)"><path fill="#000000" d="M 27.257812 20.839844 L 375 20.839844 L 375 375.375 L 27.257812 375.375 Z M 27.257812 20.839844 " fill-opacity="1" fill-rule="nonzero"/></g></g><g clip-path="url(#177ec3ab5e)"><g clip-path="url(#12b9388e4f)"><path fill="#f8b31a" d="M 27.257812 20.839844 L 375 20.839844 L 375 375.375 L 27.257812 375.375 Z M 27.257812 20.839844 " fill-opacity="1" fill-rule="nonzero"/></g></g><g clip-path="url(#22ed293fe9)"><g clip-path="url(#87db2891ef)"><path fill="#000000" d="M 27.257812 20.839844 L 375 20.839844 L 375 375.375 L 27.257812 375.375 Z M 27.257812 20.839844 " fill-opacity="1" fill-rule="nonzero"/></g></g><g clip-path="url(#3073baeb9d)"><g clip-path="url(#2ebb5ef733)"><path fill="#f8b31a" d="M 27.257812 20.839844 L 375 20.839844 L 375 375.375 L 27.257812 375.375 Z M 27.257812 20.839844 " fill-opacity="1" fill-rule="nonzero"/></g></g><g clip-path="url(#8690d074af)"><g clip-path="url(#81e488edc2)"><path fill="#000000" d="M 27.257812 20.839844 L 375 20.839844 L 375 375.375 L 27.257812 375.375 Z M 27.257812 20.839844 " fill-opacity="1" fill-rule="nonzero"/></g></g><g clip-path="url(#c8af020b65)"><g clip-path="url(#cf742da1d6)"><path fill="#daa520" d="M 27.257812 20.839844 L 375 20.839844 L 375 375.375 L 27.257812 375.375 Z M 27.257812 20.839844 " fill-opacity="1" fill-rule="nonzero"/></g></g><g clip-path="url(#ded7895a67)"><g clip-path="url(#047fd06fa6)"><path fill="#daa520" d="M 27.257812 20.839844 L 375 20.839844 L 375 375.375 L 27.257812 375.375 Z M 27.257812 20.839844 " fill-opacity="1" fill-rule="nonzero"/></g></g></svg>