<svg xmlns="http://www.w3.org/2000/svg" xmlns:xlink="http://www.w3.org/1999/xlink" width="500" zoomAndPan="magnify" viewBox="0 0 375 374.999991" height="500" preserveAspectRatio="xMidYMid meet" version="1.0"><defs><g/><clipPath id="01cb50ad75"><path d="M 190.453125 188.8125 L 216.074219 188.8125 L 216.074219 204.921875 L 190.453125 204.921875 Z M 190.453125 188.8125 " clip-rule="nonzero"/></clipPath><clipPath id="a552bc5476"><path d="M 193.480469 198.027344 L 216.941406 198.027344 L 216.941406 203.902344 L 193.480469 203.902344 Z M 193.480469 198.027344 " clip-rule="nonzero"/></clipPath><clipPath id="1b9e3acb70"><path d="M 165.105469 188.179688 L 190.5 188.179688 L 190.5 204.921875 L 165.105469 204.921875 Z M 165.105469 188.179688 " clip-rule="nonzero"/></clipPath><clipPath id="e8ec2cc1bd"><path d="M 163.691406 197 L 188 197 L 188 204 L 163.691406 204 Z M 163.691406 197 " clip-rule="nonzero"/></clipPath><clipPath id="8848b47081"><path d="M 181 184 L 201 184 L 201 204.921875 L 181 204.921875 Z M 181 184 " clip-rule="nonzero"/></clipPath><clipPath id="2118c0c780"><path d="M 194 174.171875 L 197 174.171875 L 197 178 L 194 178 Z M 194 174.171875 " clip-rule="nonzero"/></clipPath><clipPath id="8133b465c7"><path d="M 199 174.171875 L 202 174.171875 L 202 176 L 199 176 Z M 199 174.171875 " clip-rule="nonzero"/></clipPath><clipPath id="173aa71baf"><path d="M 155.632812 153.097656 L 225.808594 153.097656 L 225.808594 225.78125 L 155.632812 225.78125 Z M 155.632812 153.097656 " clip-rule="nonzero"/></clipPath><clipPath id="24fbbe8b89"><path d="M 146.464844 149.304688 L 224.609375 149.304688 L 224.609375 230.074219 L 146.464844 230.074219 Z M 146.464844 149.304688 " clip-rule="nonzero"/></clipPath></defs><g fill="#daa520" fill-opacity="1"><g transform="translate(87.426744, 247.020584)"><g><path d="M 7.765625 0 L 11.578125 0 L 11.578125 -0.15625 L 6.703125 -6.34375 L 11.15625 -12.421875 L 11.15625 -12.59375 L 7.5 -12.59375 L 4.015625 -7.703125 L 4.015625 -12.59375 L 0.9375 -12.59375 L 0.9375 0 L 4.015625 0 L 4.015625 -4.875 Z M 7.765625 0 "/></g></g></g><g fill="#daa520" fill-opacity="1"><g transform="translate(101.063051, 247.020584)"><g><path d="M 5.1875 -12.75 L 0.140625 0 L 3.4375 0 L 4.140625 -1.859375 L 8.4375 -1.859375 L 9.140625 0 L 12.625 0 L 7.375 -12.75 Z M 6.296875 -7.671875 L 7.265625 -4.9375 L 7.34375 -4.71875 L 5.25 -4.71875 L 5.359375 -5 Z M 6.296875 -7.671875 "/></g></g></g><g fill="#daa520" fill-opacity="1"><g transform="translate(115.454874, 247.020584)"><g><path d="M 6.65625 -7.71875 L 3.34375 -12.59375 L 0.90625 -12.59375 L 0.90625 0 L 3.984375 0 L 3.984375 -6.265625 L 5.796875 -3.546875 L 7.5 -3.546875 L 9.328125 -6.234375 L 9.328125 0 L 12.390625 0 L 12.390625 -12.59375 L 9.96875 -12.59375 Z M 6.65625 -7.71875 "/></g></g></g><g fill="#daa520" fill-opacity="1"><g transform="translate(130.602201, 247.020584)"><g><path d="M 5.796875 -12.703125 L 0.90625 -12.703125 L 0.90625 0 L 3.953125 0 L 3.953125 -4.265625 L 4.46875 -4.265625 L 7.09375 0 L 10.375 0 L 10.375 -0.578125 L 7.671875 -4.578125 C 9.328125 -5.359375 10.140625 -6.984375 10.140625 -8.515625 C 10.140625 -10.609375 8.671875 -12.703125 5.796875 -12.703125 Z M 5.71875 -7.0625 L 3.953125 -7.0625 L 3.953125 -9.75 L 5.71875 -9.75 C 6.65625 -9.75 7.125 -9.046875 7.125 -8.390625 C 7.125 -7.734375 6.640625 -7.0625 5.71875 -7.0625 Z M 5.71875 -7.0625 "/></g></g></g><g fill="#daa520" fill-opacity="1"><g transform="translate(143.339094, 247.020584)"><g><path d="M 5.1875 -12.75 L 0.140625 0 L 3.4375 0 L 4.140625 -1.859375 L 8.4375 -1.859375 L 9.140625 0 L 12.625 0 L 7.375 -12.75 Z M 6.296875 -7.671875 L 7.265625 -4.9375 L 7.34375 -4.71875 L 5.25 -4.71875 L 5.359375 -5 Z M 6.296875 -7.671875 "/></g></g></g><g fill="#daa520" fill-opacity="1"><g transform="translate(157.73092, 247.020584)"><g><path d="M 7.625 -12.59375 L 7.625 -6.296875 L 3.28125 -12.59375 L 0.90625 -12.59375 L 0.90625 0 L 3.953125 0 L 3.953125 -6.140625 L 8.265625 0 L 10.671875 0 L 10.671875 -12.59375 Z M 7.625 -12.59375 "/></g></g></g><g fill="#daa520" fill-opacity="1"><g transform="translate(171.151371, 247.020584)"><g/></g></g><g fill="#daa520" fill-opacity="1"><g transform="translate(177.466438, 247.020584)"><g><path d="M 8.03125 0 L 8.03125 -2.75 L 5.9375 -2.75 L 5.9375 -9.859375 L 8.03125 -9.859375 L 8.03125 -12.671875 L 0.78125 -12.671875 L 0.78125 -9.859375 L 2.859375 -9.859375 L 2.859375 -2.75 L 0.78125 -2.75 L 0.78125 0 Z M 8.03125 0 "/></g></g></g><g fill="#daa520" fill-opacity="1"><g transform="translate(187.972777, 247.020584)"><g><path d="M 7.625 -12.59375 L 7.625 -6.296875 L 3.28125 -12.59375 L 0.90625 -12.59375 L 0.90625 0 L 3.953125 0 L 3.953125 -6.140625 L 8.265625 0 L 10.671875 0 L 10.671875 -12.59375 Z M 7.625 -12.59375 "/></g></g></g><g fill="#daa520" fill-opacity="1"><g transform="translate(201.393228, 247.020584)"><g><path d="M 7.140625 -8.625 L 10.234375 -8.625 C 10.234375 -11.515625 7.8125 -12.78125 5.5625 -12.78125 C 2.875 -12.78125 0.609375 -11.125 0.75 -8.359375 L 0.75 -8.375 C 0.984375 -5.46875 3.40625 -5.015625 5.4375 -4.828125 C 5.90625 -4.765625 7.34375 -4.734375 7.34375 -3.828125 C 7.34375 -3.109375 6.53125 -2.828125 5.53125 -2.828125 C 4.828125 -2.828125 3.78125 -3.0625 3.78125 -4.296875 L 0.671875 -4.296875 C 0.671875 -1.09375 3.453125 0.15625 5.515625 0.15625 C 7.90625 0.15625 10.453125 -1.34375 10.453125 -3.984375 C 10.453125 -4.25 10.421875 -4.578125 10.375 -4.859375 C 9.828125 -7.125 7.578125 -7.59375 5.796875 -7.828125 C 5.375 -7.859375 3.890625 -7.890625 3.890625 -8.8125 C 3.890625 -9.5 4.546875 -9.921875 5.515625 -9.921875 C 6.46875 -9.921875 7.140625 -9.46875 7.140625 -8.625 Z M 7.140625 -8.625 "/></g></g></g><g fill="#daa520" fill-opacity="1"><g transform="translate(214.453912, 247.020584)"><g><path d="M 10.453125 -12.75 L 0.59375 -12.75 L 0.59375 -9.859375 L 4 -9.859375 L 4 0 L 7.078125 0 L 7.078125 -9.859375 L 10.453125 -9.859375 Z M 10.453125 -12.75 "/></g></g></g><g fill="#daa520" fill-opacity="1"><g transform="translate(227.532585, 247.020584)"><g><path d="M 8.03125 0 L 8.03125 -2.75 L 5.9375 -2.75 L 5.9375 -9.859375 L 8.03125 -9.859375 L 8.03125 -12.671875 L 0.78125 -12.671875 L 0.78125 -9.859375 L 2.859375 -9.859375 L 2.859375 -2.75 L 0.78125 -2.75 L 0.78125 0 Z M 8.03125 0 "/></g></g></g><g fill="#daa520" fill-opacity="1"><g transform="translate(238.038924, 247.020584)"><g><path d="M 10.453125 -12.75 L 0.59375 -12.75 L 0.59375 -9.859375 L 4 -9.859375 L 4 0 L 7.078125 0 L 7.078125 -9.859375 L 10.453125 -9.859375 Z M 10.453125 -12.75 "/></g></g></g><g fill="#daa520" fill-opacity="1"><g transform="translate(251.117597, 247.020584)"><g><path d="M 5.796875 0.1875 C 8.203125 0.1875 10.625 -1.21875 10.625 -4.046875 L 10.625 -12.59375 L 7.546875 -12.59375 L 7.546875 -4.0625 C 7.546875 -3.125 6.640625 -2.65625 5.734375 -2.65625 C 4.859375 -2.65625 3.984375 -3.125 3.984375 -4.0625 L 3.984375 -12.59375 L 0.90625 -12.59375 L 0.90625 -4.046875 C 0.90625 -1.1875 3.34375 0.1875 5.796875 0.1875 Z M 5.796875 0.1875 "/></g></g></g><g fill="#daa520" fill-opacity="1"><g transform="translate(264.43012, 247.020584)"><g><path d="M 10.453125 -12.75 L 0.59375 -12.75 L 0.59375 -9.859375 L 4 -9.859375 L 4 0 L 7.078125 0 L 7.078125 -9.859375 L 10.453125 -9.859375 Z M 10.453125 -12.75 "/></g></g></g><g fill="#daa520" fill-opacity="1"><g transform="translate(277.508793, 247.020584)"><g><path d="M 0.90625 -12.703125 L 0.90625 0 L 9.21875 0 L 9.21875 -2.96875 L 4 -2.96875 L 4 -4.984375 L 9.09375 -4.984375 L 9.09375 -7.96875 L 4 -7.96875 L 4 -9.734375 L 9.203125 -9.734375 L 9.203125 -12.703125 Z M 0.90625 -12.703125 "/></g></g></g><g fill="#ffffff" fill-opacity="1"><g transform="translate(123.851598, 260.618479)"><g><path d="M 2.859375 -8.390625 C 1.796875 -8.390625 0.953125 -7.53125 0.953125 -6.484375 L 0.953125 -5.828125 L 0.28125 -4.625 L 0.953125 -4.625 L 0.953125 -0.984375 C 0.953125 -0.3125 0.390625 0 0.390625 0 L 2.734375 0 C 2.734375 0 2.1875 -0.3125 2.1875 -0.984375 L 2.1875 -4.625 L 4.140625 -4.625 L 4.140625 -5.828125 L 2.1875 -5.828125 L 2.1875 -6.546875 C 2.1875 -7.234375 2.546875 -7.390625 3.234375 -7.390625 L 4 -7.390625 C 4.453125 -7.390625 4.671875 -7 4.8125 -6.65625 L 4.8125 -8.390625 Z M 2.859375 -8.390625 "/></g></g></g><g fill="#ffffff" fill-opacity="1"><g transform="translate(129.766562, 260.618479)"><g><path d="M 3.703125 -5.9375 C 1.734375 -5.9375 0.375 -4.59375 0.375 -2.921875 C 0.375 -1.25 1.703125 0.125 3.703125 0.125 C 5.5625 0.125 7.03125 -1.25 7.03125 -2.921875 C 7.03125 -4.59375 5.609375 -5.9375 3.703125 -5.9375 Z M 3.703125 -1.09375 C 2.375 -1.09375 1.609375 -2.015625 1.609375 -2.921875 C 1.609375 -3.921875 2.375 -4.734375 3.703125 -4.734375 C 5.015625 -4.734375 5.78125 -3.875 5.78125 -2.921875 C 5.78125 -1.984375 5.015625 -1.09375 3.703125 -1.09375 Z M 3.703125 -1.09375 "/></g></g></g><g fill="#ffffff" fill-opacity="1"><g transform="translate(138.759346, 260.618479)"><g><path d="M 4.1875 -5.9375 C 3.140625 -5.9375 2.5625 -5.296875 2.09375 -4.34375 L 2.09375 -5.828125 L 0.3125 -5.828125 C 0.3125 -5.828125 0.84375 -5.5 0.84375 -4.84375 L 0.84375 -0.984375 C 0.84375 -0.3125 0.3125 0 0.3125 0 L 2.640625 0 C 2.640625 0 2.09375 -0.3125 2.09375 -0.984375 L 2.09375 -2.984375 C 2.09375 -3.890625 2.984375 -4.734375 4.1875 -4.734375 C 5 -4.734375 5.078125 -4.296875 5.078125 -3.28125 L 6.328125 -3.171875 C 6.28125 -4.703125 5.53125 -5.9375 4.1875 -5.9375 Z M 4.1875 -5.9375 "/></g></g></g><g fill="#ffffff" fill-opacity="1"><g transform="translate(146.927709, 260.618479)"><g/></g></g><g fill="#ffffff" fill-opacity="1"><g transform="translate(151.820396, 260.618479)"><g><path d="M 2.09375 -6.703125 C 2.09375 -7.453125 2.640625 -7.703125 2.640625 -7.703125 L 0.3125 -7.703125 C 0.3125 -7.703125 0.859375 -7.375 0.859375 -6.703125 L 0.859375 -0.984375 C 0.859375 -0.3125 0.3125 0 0.3125 0 L 2.640625 0 C 2.640625 0 2.09375 -0.3125 2.09375 -0.984375 Z M 2.09375 -6.703125 "/></g></g></g><g fill="#ffffff" fill-opacity="1"><g transform="translate(156.372323, 260.618479)"><g><path d="M 1.765625 -4.140625 C 1.765625 -4.5625 2.09375 -4.734375 3.4375 -4.734375 C 4.78125 -4.734375 5.171875 -4.515625 5.171875 -3.84375 L 6.40625 -3.75 C 6.40625 -4.78125 5.4375 -5.953125 3.4375 -5.953125 C 1.421875 -5.953125 0.515625 -4.78125 0.515625 -4.140625 C 0.515625 -2.015625 5.234375 -2.515625 5.234375 -1.640625 C 5.234375 -1.25 4.65625 -1.09375 3.46875 -1.09375 C 2.421875 -1.09375 1.609375 -1.3125 1.609375 -2.265625 L 0.390625 -2.359375 C 0.390625 -1.0625 1.703125 0.125 3.46875 0.125 C 5.90625 0.125 6.46875 -1.0625 6.46875 -1.640625 C 6.46875 -3.71875 1.765625 -3.046875 1.765625 -4.140625 Z M 1.765625 -4.140625 "/></g></g></g><g fill="#ffffff" fill-opacity="1"><g transform="translate(164.859461, 260.618479)"><g><path d="M 0.28125 0 L 2.609375 0 C 2.609375 0 2.0625 -0.3125 2.0625 -0.984375 L 2.078125 -8.390625 L 0.28125 -8.390625 C 0.28125 -8.390625 0.828125 -8.0625 0.828125 -7.40625 L 0.828125 -0.984375 C 0.828125 -0.3125 0.28125 0 0.28125 0 Z M 0.28125 0 "/></g></g></g><g fill="#ffffff" fill-opacity="1"><g transform="translate(169.356423, 260.618479)"><g><path d="M 6.859375 -0.984375 L 6.859375 -2.921875 C 6.859375 -3.953125 6.21875 -4.703125 5.671875 -5.203125 C 5.109375 -5.703125 4.4375 -5.9375 3.484375 -5.9375 C 1.25 -5.9375 0.84375 -4.125 0.84375 -4.125 L 1.359375 -3.796875 C 1.359375 -3.796875 1.78125 -4.734375 3.484375 -4.734375 C 4.828125 -4.734375 5.625 -4.375 5.625 -3.109375 L 5.625 -3.03125 C 5.15625 -3.171875 3.765625 -3.53125 2.4375 -3.53125 C 1.34375 -3.53125 0.328125 -2.890625 0.328125 -1.90625 C 0.328125 -0.453125 2.140625 0.109375 3.484375 0.109375 C 4.484375 0.109375 5.0625 -0.34375 5.625 -1.0625 L 5.71875 0.015625 L 7.609375 0.015625 C 7.609375 0.015625 6.859375 -0.3125 6.859375 -0.984375 Z M 3.484375 -1.09375 C 2.546875 -1.09375 1.46875 -1.03125 1.46875 -1.8125 C 1.46875 -3.25 4.703125 -2.578125 5.5625 -2.421875 C 5.40625 -1.609375 4.65625 -1.09375 3.484375 -1.09375 Z M 3.484375 -1.09375 "/></g></g></g><g fill="#ffffff" fill-opacity="1"><g transform="translate(178.71195, 260.618479)"><g><path d="M 9.3125 0 L 11.65625 0 C 11.65625 0 11.109375 -0.3125 11.109375 -0.984375 L 11.109375 -2.96875 C 11.09375 -4.625 10.453125 -5.9375 8.703125 -5.9375 C 7.5625 -5.9375 6.78125 -5.171875 6.375 -4.078125 C 6.140625 -5.171875 5.546875 -5.9375 4.1875 -5.9375 C 3.140625 -5.9375 2.546875 -5.296875 2.078125 -4.34375 L 2.078125 -5.828125 L 0.28125 -5.828125 C 0.28125 -5.828125 0.828125 -5.515625 0.828125 -4.84375 L 0.828125 -0.984375 C 0.828125 -0.328125 0.28125 0 0.28125 0 L 2.625 0 C 2.625 0 2.0625 -0.3125 2.0625 -0.984375 L 2.078125 -2.984375 C 2.078125 -3.890625 2.84375 -4.734375 4.1875 -4.734375 C 5.296875 -4.734375 5.34375 -3.8125 5.34375 -3.078125 L 5.34375 -0.984375 C 5.34375 -0.328125 4.796875 0 4.796875 0 L 7.140625 0 C 7.140625 0 6.59375 -0.3125 6.59375 -0.984375 L 6.59375 -2.96875 C 6.59375 -2.96875 6.59375 -2.96875 6.59375 -2.984375 C 6.59375 -3.84375 7.375 -4.734375 8.703125 -4.734375 C 9.796875 -4.734375 9.859375 -3.859375 9.859375 -3.078125 L 9.859375 -0.984375 C 9.859375 -0.328125 9.3125 0 9.3125 0 Z M 9.3125 0 "/></g></g></g><g fill="#ffffff" fill-opacity="1"><g transform="translate(192.200557, 260.618479)"><g><path d="M 0.3125 0 L 2.640625 0 C 2.640625 0 2.09375 -0.3125 2.09375 -0.984375 L 2.09375 -5.828125 L 0.3125 -5.828125 C 0.3125 -5.828125 0.84375 -5.5 0.84375 -4.84375 L 0.84375 -0.984375 C 0.84375 -0.3125 0.3125 0 0.3125 0 Z M 1.4375 -6.390625 C 1.875 -6.390625 2.09375 -6.703125 2.09375 -7.09375 C 2.09375 -7.484375 1.875 -7.8125 1.4375 -7.8125 C 1.046875 -7.8125 0.84375 -7.484375 0.84375 -7.09375 C 0.84375 -6.703125 1.046875 -6.390625 1.4375 -6.390625 Z M 1.4375 -6.390625 "/></g></g></g><g fill="#ffffff" fill-opacity="1"><g transform="translate(196.7305, 260.618479)"><g><path d="M 6.453125 -2.5 C 6.453125 -2.5 5.90625 -1.09375 3.6875 -1.09375 C 2.40625 -1.09375 1.609375 -1.78125 1.609375 -2.921875 C 1.609375 -4.140625 2.234375 -4.734375 3.65625 -4.734375 C 4.984375 -4.734375 5.734375 -4.359375 5.734375 -3.46875 L 6.96875 -3.390625 C 6.96875 -4.8125 5.390625 -5.9375 3.6875 -5.9375 C 1.703125 -5.9375 0.359375 -4.59375 0.359375 -2.921875 C 0.359375 -1.25 1.84375 0.125 3.6875 0.125 C 6.328125 0.125 6.984375 -2.171875 6.984375 -2.171875 Z M 6.453125 -2.5 "/></g></g></g><g fill="#ffffff" fill-opacity="1"><g transform="translate(205.668318, 260.618479)"><g/></g></g><g fill="#ffffff" fill-opacity="1"><g transform="translate(210.561004, 260.618479)"><g><path d="M 1.765625 -4.140625 C 1.765625 -4.5625 2.09375 -4.734375 3.4375 -4.734375 C 4.78125 -4.734375 5.171875 -4.515625 5.171875 -3.84375 L 6.40625 -3.75 C 6.40625 -4.78125 5.4375 -5.953125 3.4375 -5.953125 C 1.421875 -5.953125 0.515625 -4.78125 0.515625 -4.140625 C 0.515625 -2.015625 5.234375 -2.515625 5.234375 -1.640625 C 5.234375 -1.25 4.65625 -1.09375 3.46875 -1.09375 C 2.421875 -1.09375 1.609375 -1.3125 1.609375 -2.265625 L 0.390625 -2.359375 C 0.390625 -1.0625 1.703125 0.125 3.46875 0.125 C 5.90625 0.125 6.46875 -1.0625 6.46875 -1.640625 C 6.46875 -3.71875 1.765625 -3.046875 1.765625 -4.140625 Z M 1.765625 -4.140625 "/></g></g></g><g fill="#ffffff" fill-opacity="1"><g transform="translate(219.048142, 260.618479)"><g><path d="M 3.5625 -4.625 L 4.109375 -5.828125 L 2.15625 -5.828125 L 2.15625 -7.65625 L 0.90625 -7.65625 L 0.90625 -5.828125 L 0.359375 -5.828125 L 0.359375 -4.625 L 0.90625 -4.625 L 0.90625 0 L 2.6875 0 C 2.6875 0 2.140625 -0.3125 2.140625 -0.984375 L 2.15625 -4.625 Z M 3.5625 -4.625 "/></g></g></g><g fill="#ffffff" fill-opacity="1"><g transform="translate(224.853175, 260.618479)"><g><path d="M 6.484375 -0.984375 L 6.484375 -4.84375 C 6.484375 -5.5 7.03125 -5.828125 7.03125 -5.828125 L 4.703125 -5.828125 C 4.703125 -5.828125 5.265625 -5.5 5.265625 -4.84375 L 5.25 -2.828125 C 5.25 -1.90625 4.59375 -1.078125 3.15625 -1.078125 C 2.125 -1.078125 1.96875 -1.953125 1.96875 -2.734375 L 1.96875 -4.84375 C 1.96875 -5.5 2.515625 -5.828125 2.515625 -5.828125 L 0.203125 -5.828125 C 0.203125 -5.828125 0.734375 -5.5 0.734375 -4.84375 L 0.734375 -2.859375 C 0.75 -1.203125 1.546875 0.125 3.15625 0.125 C 4.203125 0.125 4.78125 -0.53125 5.25 -1.46875 L 5.25 0 L 7.03125 0 C 7.03125 0 6.484375 -0.3125 6.484375 -0.984375 Z M 6.484375 -0.984375 "/></g></g></g><g fill="#ffffff" fill-opacity="1"><g transform="translate(233.790998, 260.618479)"><g><path d="M 5 0.015625 L 7.34375 0.015625 C 7.34375 0.015625 6.796875 -0.3125 6.796875 -0.984375 L 6.796875 -8.390625 L 5 -8.390625 C 5 -8.390625 5.5625 -8.0625 5.5625 -7.40625 L 5.5625 -4.328125 C 5.09375 -5.296875 4.484375 -5.9375 3.421875 -5.9375 C 1.6875 -5.9375 0.390625 -4.59375 0.390625 -2.921875 C 0.390625 -1.25 1.625 0.109375 3.421875 0.109375 C 4.484375 0.109375 5.09375 -0.53125 5.5625 -1.484375 C 5.5625 -1.171875 5.5625 -0.984375 5.5625 -0.984375 C 5.5625 -0.3125 5 0.015625 5 0.015625 Z M 3.421875 -1.09375 C 2.40625 -1.09375 1.609375 -1.828125 1.609375 -2.921875 C 1.609375 -3.984375 2.359375 -4.734375 3.421875 -4.734375 C 4.984375 -4.734375 5.5625 -4.046875 5.5625 -2.921875 C 5.5625 -1.90625 5 -1.09375 3.421875 -1.09375 Z M 3.421875 -1.09375 "/></g></g></g><g fill="#ffffff" fill-opacity="1"><g transform="translate(243.014615, 260.618479)"><g><path d="M 5 -5.828125 L 5.484375 -5.625 C 5.75 -5.515625 5.890625 -5.203125 5.78125 -4.9375 L 4.28125 -1.203125 L 3.828125 -1.203125 L 2.328125 -4.9375 C 2.21875 -5.203125 2.359375 -5.515625 2.625 -5.625 L 3.109375 -5.828125 L 0 -5.828125 C 0.5625 -5.5625 1 -5.109375 1.234375 -4.515625 L 3.03125 0 L 3.8125 0 L 3.5625 0.625 C 3.25 1.4375 2.46875 1.953125 1.609375 1.953125 L 1.609375 2.578125 C 3.09375 2.578125 4.421875 1.671875 4.96875 0.296875 L 5.078125 0.015625 L 5.078125 0 L 6.875 -4.515625 C 7.109375 -5.109375 7.546875 -5.5625 8.125 -5.828125 Z M 5 -5.828125 "/></g></g></g><g clip-path="url(#01cb50ad75)"><path fill="#daa520" d="M 208.320312 188.835938 L 216.066406 196.96875 C 198.824219 197.003906 190.457031 205.191406 190.457031 205.191406 C 190.457031 205.191406 194.6875 191.777344 208.320312 188.835938 " fill-opacity="1" fill-rule="nonzero"/></g><g clip-path="url(#a552bc5476)"><path fill="#ffffff" d="M 217.289062 203.320312 C 205.941406 200.554688 197.652344 202.394531 193.488281 203.871094 C 196.875 201.726562 203.109375 198.746094 212.285156 198.066406 L 217.289062 203.320312 " fill-opacity="1" fill-rule="nonzero"/></g><g clip-path="url(#1b9e3acb70)"><path fill="#daa520" d="M 173.179688 188.214844 L 165.152344 196.070312 C 182.382812 196.714844 190.457031 205.191406 190.457031 205.191406 C 190.457031 205.191406 186.699219 191.636719 173.179688 188.214844 " fill-opacity="1" fill-rule="nonzero"/></g><g clip-path="url(#e8ec2cc1bd)"><path fill="#ffffff" d="M 163.707031 202.375 C 175.144531 200.011719 183.363281 202.144531 187.472656 203.765625 C 184.164062 201.5 178.039062 198.304688 168.890625 197.300781 L 163.707031 202.375 " fill-opacity="1" fill-rule="nonzero"/></g><path fill="#ffffff" d="M 210.128906 184.109375 L 209.015625 187.019531 C 201.816406 188.476562 197.113281 193.023438 194.429688 196.585938 C 196.699219 192.460938 201.46875 186.160156 210.128906 184.109375 " fill-opacity="1" fill-rule="nonzero"/><path fill="#ffffff" d="M 171.082031 183.308594 L 172.09375 186.273438 C 179.5 187.886719 184.179688 192.71875 186.785156 196.453125 C 184.628906 192.175781 179.960938 185.554688 171.082031 183.308594 " fill-opacity="1" fill-rule="nonzero"/><g clip-path="url(#8848b47081)"><path fill="#ffffff" d="M 190.660156 193.671875 C 190.660156 193.671875 186.632812 186.519531 181.0625 184.816406 C 181.0625 184.816406 189.121094 191.761719 190.472656 204.394531 C 192.265625 191.816406 200.5625 185.160156 200.5625 185.160156 C 194.933594 186.667969 190.660156 193.671875 190.660156 193.671875 " fill-opacity="1" fill-rule="nonzero"/></g><path fill="#ffffff" d="M 193.398438 186.863281 C 193.425781 185.265625 192.277344 183.949219 190.832031 183.925781 C 189.386719 183.898438 188.191406 185.175781 188.164062 186.769531 C 188.136719 188.367188 189.285156 189.683594 190.730469 189.707031 C 192.175781 189.734375 193.367188 188.460938 193.398438 186.863281 " fill-opacity="1" fill-rule="nonzero"/><path fill="#daa520" d="M 194.253906 177.292969 L 189.523438 177.210938 L 189.441406 181.941406 L 194.171875 182.023438 L 194.253906 177.292969 " fill-opacity="1" fill-rule="nonzero"/><g clip-path="url(#2118c0c780)"><path fill="#daa520" d="M 196.660156 174.972656 L 194.296875 174.929688 L 194.253906 177.292969 L 196.621094 177.335938 L 196.660156 174.972656 " fill-opacity="1" fill-rule="nonzero"/></g><path fill="#ffffff" d="M 201.332031 180.667969 L 198.964844 180.625 L 198.925781 182.988281 L 201.289062 183.03125 L 201.332031 180.667969 " fill-opacity="1" fill-rule="nonzero"/><path fill="#ffffff" d="M 197.148438 179.710938 L 196.011719 179.691406 L 195.988281 180.828125 L 197.125 180.847656 L 197.148438 179.710938 " fill-opacity="1" fill-rule="nonzero"/><path fill="#ffffff" d="M 208.285156 177.878906 L 206.105469 177.84375 L 206.066406 180.023438 L 208.25 180.0625 L 208.285156 177.878906 " fill-opacity="1" fill-rule="nonzero"/><path fill="#f8b31a" d="M 204.152344 182.867188 L 203.015625 182.847656 L 202.996094 183.984375 L 204.132812 184.003906 L 204.152344 182.867188 " fill-opacity="1" fill-rule="nonzero"/><g clip-path="url(#8133b465c7)"><path fill="#ffffff" d="M 201.351562 174.203125 L 199.648438 174.171875 L 199.617188 175.875 L 201.324219 175.90625 L 201.351562 174.203125 " fill-opacity="1" fill-rule="nonzero"/></g><path fill="#f8b31a" d="M 203.382812 176.59375 L 201.660156 176.5625 L 201.628906 178.285156 L 203.351562 178.316406 L 203.382812 176.59375 " fill-opacity="1" fill-rule="nonzero"/><path fill="#ffffff" d="M 190.789062 220.4375 C 173.855469 220.4375 160.125 206.707031 160.125 189.773438 C 160.125 172.839844 173.855469 159.109375 190.789062 159.109375 C 203.550781 159.109375 214.492188 166.910156 219.109375 178 C 214.496094 164.863281 201.980469 155.441406 187.265625 155.441406 C 168.632812 155.441406 153.523438 170.546875 153.523438 189.183594 C 153.523438 207.816406 168.632812 222.921875 187.265625 222.921875 C 197.984375 222.921875 207.535156 217.925781 213.714844 210.132812 C 208.097656 216.453125 199.910156 220.4375 190.789062 220.4375 " fill-opacity="1" fill-rule="nonzero"/><g clip-path="url(#173aa71baf)"><path fill="#daa520" d="M 191.070312 155.339844 C 209.742188 157.589844 223.050781 174.546875 220.804688 193.214844 C 218.554688 211.886719 201.597656 225.195312 182.929688 222.949219 C 170.414062 221.441406 160.308594 213.324219 155.679688 202.511719 C 160.363281 214.617188 171.40625 223.804688 185.191406 225.464844 C 205.082031 227.859375 223.148438 213.675781 225.542969 193.785156 C 227.9375 173.894531 213.757812 155.828125 193.867188 153.433594 C 180.082031 151.773438 167.171875 158.078125 159.75 168.726562 C 166.8125 159.320312 178.554688 153.835938 191.070312 155.339844 " fill-opacity="1" fill-rule="nonzero"/></g><g clip-path="url(#24fbbe8b89)"><path fill="#daa520" d="M 185.132812 151.71875 C 164.351562 154.222656 149.53125 173.097656 152.035156 193.882812 C 154.539062 214.664062 173.414062 229.480469 194.195312 226.976562 C 208.128906 225.300781 219.378906 216.265625 224.527344 204.226562 C 219.316406 217.703125 207.023438 227.929688 191.679688 229.777344 C 169.539062 232.445312 149.425781 216.65625 146.757812 194.515625 C 144.09375 172.375 159.878906 152.265625 182.023438 149.597656 C 197.367188 147.75 211.734375 154.765625 220 166.617188 C 212.136719 156.148438 199.0625 150.042969 185.132812 151.71875 " fill-opacity="1" fill-rule="nonzero"/></g></svg>