<svg xmlns="http://www.w3.org/2000/svg" xmlns:xlink="http://www.w3.org/1999/xlink" width="1280" zoomAndPan="magnify" viewBox="0 0 960 599.999999" height="800" preserveAspectRatio="xMidYMid meet" version="1.0"><defs><clipPath id="8dba224a72"><path d="M 846 456 L 849 456 L 849 467 L 846 467 Z M 846 456 " clip-rule="nonzero"/></clipPath><clipPath id="d687c965a1"><path d="M 846.746094 466.660156 L 846.417969 456.914062 L 848.667969 456.839844 L 848.996094 466.582031 Z M 846.746094 466.660156 " clip-rule="nonzero"/></clipPath><clipPath id="489f4b6d32"><path d="M 846.746094 466.660156 L 846.417969 456.914062 L 848.667969 456.839844 L 848.996094 466.582031 Z M 846.746094 466.660156 " clip-rule="nonzero"/></clipPath><clipPath id="b4f7eaac32"><path d="M 477.929688 213 L 622.308594 213 L 622.308594 305.089844 L 477.929688 305.089844 Z M 477.929688 213 " clip-rule="nonzero"/></clipPath><clipPath id="d97fe2b016"><path d="M 495 265 L 629.160156 265 L 629.160156 298 L 495 298 Z M 495 265 " clip-rule="nonzero"/></clipPath><clipPath id="cd5b02e949"><path d="M 335.082031 209.429688 L 478 209.429688 L 478 305.089844 L 335.082031 305.089844 Z M 335.082031 209.429688 " clip-rule="nonzero"/></clipPath><clipPath id="7b7bc6a287"><path d="M 327.148438 260 L 462 260 L 462 298 L 327.148438 298 Z M 327.148438 260 " clip-rule="nonzero"/></clipPath><clipPath id="24bf0989ab"><path d="M 529 130.488281 L 539.765625 130.488281 L 539.765625 141 L 529 141 Z M 529 130.488281 " clip-rule="nonzero"/></clipPath><clipPath id="30d8012673"><path d="M 288.550781 32 L 669.308594 32 L 669.308594 426.535156 L 288.550781 426.535156 Z M 288.550781 32 " clip-rule="nonzero"/></clipPath><clipPath id="f2e6d91fd8"><path d="M 238.75 11.027344 L 663 11.027344 L 663 449.882812 L 238.75 449.882812 Z M 238.75 11.027344 " clip-rule="nonzero"/></clipPath></defs><g clip-path="url(#8dba224a72)"><g clip-path="url(#d687c965a1)"><g clip-path="url(#489f4b6d32)"><path fill="#272727" d="M 846.703125 465.382812 C 846.726562 466.066406 847.300781 466.605469 847.988281 466.582031 C 848.671875 466.558594 849.210938 465.984375 849.1875 465.296875 C 849.164062 464.613281 848.589844 464.074219 847.90625 464.097656 C 847.21875 464.121094 846.679688 464.695312 846.703125 465.382812 Z M 846.453125 457.933594 C 846.476562 458.617188 847.050781 459.15625 847.738281 459.132812 C 848.421875 459.109375 848.960938 458.535156 848.9375 457.847656 C 848.914062 457.164062 848.339844 456.625 847.652344 456.648438 C 846.96875 456.671875 846.429688 457.246094 846.453125 457.933594 Z M 846.578125 461.65625 C 846.601562 462.34375 847.175781 462.878906 847.863281 462.855469 C 848.546875 462.835938 849.085938 462.261719 849.0625 461.574219 C 849.039062 460.886719 848.464844 460.351562 847.777344 460.375 C 847.09375 460.398438 846.554688 460.972656 846.578125 461.65625 Z M 846.578125 461.65625 " fill-opacity="1" fill-rule="nonzero"/></g></g></g><path fill="#daa520" d="M 150.640625 516.902344 L 165.859375 516.902344 L 165.859375 516.265625 L 146.398438 491.621094 L 164.191406 467.371094 L 164.191406 466.644531 L 149.613281 466.644531 L 135.699219 486.164062 L 135.699219 466.644531 L 123.421875 466.644531 L 123.421875 516.902344 L 135.699219 516.902344 L 135.699219 497.441406 Z M 150.640625 516.902344 " fill-opacity="1" fill-rule="nonzero"/><path fill="#daa520" d="M 187.59375 466.066406 L 167.496094 516.902344 L 180.621094 516.902344 L 183.4375 509.503906 L 200.597656 509.503906 L 203.386719 516.902344 L 217.238281 516.902344 L 196.351562 466.066406 Z M 192.046875 486.316406 L 195.929688 497.230469 L 196.199219 498.109375 L 187.863281 498.109375 L 188.320312 496.957031 Z M 192.046875 486.316406 " fill-opacity="1" fill-rule="nonzero"/><path fill="#daa520" d="M 243.710938 486.105469 L 230.496094 466.644531 L 220.734375 466.644531 L 220.734375 516.902344 L 233.011719 516.902344 L 233.011719 491.925781 L 240.257812 502.777344 L 247.078125 502.777344 L 254.351562 492.074219 L 254.351562 516.902344 L 266.539062 516.902344 L 266.539062 466.644531 L 256.929688 466.644531 Z M 243.710938 486.105469 " fill-opacity="1" fill-rule="nonzero"/><path fill="#daa520" d="M 293.515625 466.21875 L 273.992188 466.21875 L 273.992188 516.902344 L 286.207031 516.902344 L 286.207031 499.894531 L 288.210938 499.894531 L 298.699219 516.902344 L 311.761719 516.902344 L 311.761719 514.597656 L 301 498.683594 C 307.609375 495.5 310.824219 489.042969 310.824219 482.953125 C 310.824219 474.617188 305.003906 466.21875 293.515625 466.21875 Z M 293.242188 488.769531 L 286.207031 488.769531 L 286.207031 478.011719 L 293.242188 478.011719 C 296.96875 478.011719 298.847656 480.800781 298.847656 483.464844 C 298.847656 486.042969 296.910156 488.769531 293.242188 488.769531 Z M 293.242188 488.769531 " fill-opacity="1" fill-rule="nonzero"/><path fill="#daa520" d="M 334.726562 466.066406 L 314.628906 516.902344 L 327.753906 516.902344 L 330.574219 509.503906 L 347.730469 509.503906 L 350.519531 516.902344 L 364.371094 516.902344 L 343.484375 466.066406 Z M 339.179688 486.316406 L 343.0625 497.230469 L 343.335938 498.109375 L 335 498.109375 L 335.453125 496.957031 Z M 339.179688 486.316406 " fill-opacity="1" fill-rule="nonzero"/><path fill="#daa520" d="M 394.726562 466.644531 L 394.726562 491.773438 L 377.359375 466.644531 L 367.871094 466.644531 L 367.871094 516.902344 L 380.085938 516.902344 L 380.085938 492.4375 L 397.246094 516.902344 L 406.851562 516.902344 L 406.851562 466.644531 Z M 394.726562 466.644531 " fill-opacity="1" fill-rule="nonzero"/><path fill="#daa520" d="M 460.683594 516.902344 L 460.683594 505.929688 L 452.347656 505.929688 L 452.347656 477.554688 L 460.683594 477.554688 L 460.683594 466.371094 L 431.765625 466.371094 L 431.765625 477.554688 L 440.101562 477.554688 L 440.101562 505.929688 L 431.765625 505.929688 L 431.765625 516.902344 Z M 460.683594 516.902344 " fill-opacity="1" fill-rule="nonzero"/><path fill="#daa520" d="M 493.84375 466.644531 L 493.84375 491.773438 L 476.472656 466.644531 L 466.984375 466.644531 L 466.984375 516.902344 L 479.203125 516.902344 L 479.203125 492.4375 L 496.359375 516.902344 L 505.96875 516.902344 L 505.96875 466.644531 Z M 493.84375 466.644531 " fill-opacity="1" fill-rule="nonzero"/><path fill="#daa520" d="M 538.269531 482.527344 L 550.605469 482.527344 C 550.605469 470.949219 540.9375 465.945312 531.964844 465.945312 C 521.261719 465.945312 512.230469 472.554688 512.777344 483.589844 L 512.777344 483.527344 C 513.714844 495.078125 523.355469 496.863281 531.449219 497.652344 C 533.328125 497.863281 539.058594 498.015625 539.058594 501.625 C 539.058594 504.472656 535.84375 505.625 531.8125 505.625 C 529.023438 505.625 524.839844 504.683594 524.839844 499.746094 L 512.441406 499.746094 C 512.441406 512.535156 523.566406 517.539062 531.75 517.539062 C 541.300781 517.539062 551.484375 511.503906 551.484375 501.046875 C 551.484375 499.957031 551.332031 498.683594 551.121094 497.53125 C 548.96875 488.46875 539.996094 486.621094 532.875 485.679688 C 531.234375 485.527344 525.265625 485.46875 525.265625 481.738281 C 525.265625 479.011719 527.933594 477.34375 531.75 477.34375 C 535.539062 477.34375 538.269531 479.132812 538.269531 482.527344 Z M 538.269531 482.527344 " fill-opacity="1" fill-rule="nonzero"/><path fill="#daa520" d="M 596.414062 466.066406 L 557.070312 466.066406 L 557.070312 477.554688 L 570.648438 477.554688 L 570.648438 516.902344 L 582.925781 516.902344 L 582.925781 477.554688 L 596.414062 477.554688 Z M 596.414062 466.066406 " fill-opacity="1" fill-rule="nonzero"/><path fill="#daa520" d="M 631.714844 516.902344 L 631.714844 505.929688 L 623.378906 505.929688 L 623.378906 477.554688 L 631.714844 477.554688 L 631.714844 466.371094 L 602.796875 466.371094 L 602.796875 477.554688 L 611.132812 477.554688 L 611.132812 505.929688 L 602.796875 505.929688 L 602.796875 516.902344 Z M 631.714844 516.902344 " fill-opacity="1" fill-rule="nonzero"/><path fill="#daa520" d="M 676.15625 466.066406 L 636.808594 466.066406 L 636.808594 477.554688 L 650.390625 477.554688 L 650.390625 516.902344 L 662.667969 516.902344 L 662.667969 477.554688 L 676.15625 477.554688 Z M 676.15625 466.066406 " fill-opacity="1" fill-rule="nonzero"/><path fill="#daa520" d="M 702.546875 517.628906 C 712.183594 517.628906 721.792969 512.019531 721.792969 500.746094 L 721.792969 466.644531 L 709.515625 466.644531 L 709.515625 500.683594 C 709.515625 504.414062 705.941406 506.292969 702.332031 506.292969 C 698.816406 506.292969 695.300781 504.414062 695.300781 500.683594 L 695.300781 466.644531 L 683.023438 466.644531 L 683.023438 500.746094 C 683.023438 512.171875 692.785156 517.628906 702.546875 517.628906 Z M 702.546875 517.628906 " fill-opacity="1" fill-rule="nonzero"/><path fill="#daa520" d="M 767.089844 466.066406 L 727.746094 466.066406 L 727.746094 477.554688 L 741.324219 477.554688 L 741.324219 516.902344 L 753.601562 516.902344 L 753.601562 477.554688 L 767.089844 477.554688 Z M 767.089844 466.066406 " fill-opacity="1" fill-rule="nonzero"/><path fill="#daa520" d="M 773.957031 466.21875 L 773.957031 516.902344 L 807.121094 516.902344 L 807.121094 505.050781 L 786.324219 505.050781 L 786.324219 497.015625 L 806.636719 497.015625 L 806.636719 485.105469 L 786.324219 485.105469 L 786.324219 478.070312 L 807.058594 478.070312 L 807.058594 466.21875 Z M 773.957031 466.21875 " fill-opacity="1" fill-rule="nonzero"/><path fill="#ffffff" d="M 254.429688 542.726562 C 250.335938 542.726562 247 546.0625 247 550.15625 L 247 552.671875 L 244.457031 557.308594 L 247 557.308594 L 247 571.496094 C 247 574.042969 244.878906 575.285156 244.878906 575.285156 L 253.972656 575.285156 C 253.972656 575.285156 251.820312 574.042969 251.820312 571.496094 L 251.820312 557.308594 L 259.367188 557.308594 L 259.367188 552.671875 L 251.820312 552.671875 L 251.820312 549.882812 C 251.820312 547.214844 253.246094 546.609375 255.882812 546.609375 L 258.882812 546.609375 C 260.613281 546.609375 261.460938 548.152344 262.035156 549.457031 L 262.035156 542.726562 Z M 254.429688 542.726562 " fill-opacity="1" fill-rule="nonzero"/><path fill="#ffffff" d="M 280.628906 552.246094 C 272.992188 552.246094 267.746094 557.492188 267.746094 563.976562 C 267.746094 570.464844 272.898438 575.738281 280.628906 575.738281 C 287.875 575.738281 293.574219 570.464844 293.574219 563.976562 C 293.574219 557.492188 288.054688 552.246094 280.628906 552.246094 Z M 280.628906 571.070312 C 275.507812 571.070312 272.535156 567.464844 272.535156 563.976562 C 272.535156 560.097656 275.507812 556.882812 280.628906 556.882812 C 285.753906 556.882812 288.753906 560.25 288.753906 563.976562 C 288.753906 567.554688 285.753906 571.070312 280.628906 571.070312 Z M 280.628906 571.070312 " fill-opacity="1" fill-rule="nonzero"/><path fill="#ffffff" d="M 317.445312 552.246094 C 313.414062 552.246094 311.140625 554.703125 309.351562 558.429688 L 309.351562 552.671875 L 302.378906 552.671875 C 302.378906 552.671875 304.472656 553.945312 304.472656 556.488281 L 304.472656 571.496094 C 304.472656 574.042969 302.378906 575.285156 302.378906 575.285156 L 311.445312 575.285156 C 311.445312 575.285156 309.320312 574.042969 309.320312 571.496094 L 309.320312 563.675781 C 309.320312 560.21875 312.777344 556.882812 317.445312 556.882812 C 320.628906 556.882812 320.902344 558.582031 320.902344 562.550781 L 325.75 562.945312 C 325.570312 557.003906 322.660156 552.246094 317.445312 552.246094 Z M 317.445312 552.246094 " fill-opacity="1" fill-rule="nonzero"/><path fill="#ffffff" d="M 353.078125 575.285156 L 362.140625 575.285156 C 362.140625 575.285156 360.019531 574.042969 360.019531 571.496094 L 360.050781 552.671875 L 353.078125 552.671875 C 353.078125 552.671875 355.167969 553.945312 355.167969 556.488281 L 355.167969 571.496094 C 355.167969 574.042969 353.078125 575.285156 353.078125 575.285156 Z M 357.472656 550.488281 C 359.203125 550.488281 360.019531 549.246094 360.019531 547.761719 C 360.019531 546.214844 359.203125 544.972656 357.472656 544.972656 C 355.957031 544.972656 355.167969 546.214844 355.167969 547.761719 C 355.167969 549.246094 355.957031 550.488281 357.472656 550.488281 Z M 357.472656 550.488281 " fill-opacity="1" fill-rule="nonzero"/><path fill="#ffffff" d="M 376.296875 559.1875 C 376.296875 557.582031 377.632812 556.882812 382.785156 556.882812 C 388.03125 556.882812 389.546875 557.792969 389.546875 560.339844 L 394.363281 560.734375 C 394.363281 556.761719 390.574219 552.1875 382.785156 552.1875 C 374.996094 552.1875 371.480469 556.761719 371.480469 559.1875 C 371.480469 567.464844 389.789062 565.523438 389.789062 568.917969 C 389.789062 570.464844 387.574219 571.070312 382.9375 571.070312 C 378.875 571.070312 375.753906 570.160156 375.753906 566.492188 L 370.964844 566.097656 C 370.964844 571.132812 376.085938 575.738281 382.9375 575.738281 C 392.394531 575.738281 394.578125 571.132812 394.578125 568.917969 C 394.578125 560.855469 376.296875 563.460938 376.296875 559.1875 Z M 376.296875 559.1875 " fill-opacity="1" fill-rule="nonzero"/><path fill="#ffffff" d="M 403.542969 575.285156 L 412.546875 575.285156 C 412.546875 575.285156 410.453125 574.042969 410.453125 571.496094 L 410.484375 542.726562 L 403.542969 542.726562 C 403.542969 542.726562 405.632812 544 405.632812 546.546875 L 405.632812 571.496094 C 405.632812 574.042969 403.542969 575.285156 403.542969 575.285156 Z M 403.542969 575.285156 " fill-opacity="1" fill-rule="nonzero"/><path fill="#ffffff" d="M 446.519531 571.496094 L 446.519531 563.976562 C 446.519531 559.914062 444.035156 557.003906 441.851562 555.097656 C 439.730469 553.125 437.0625 552.246094 433.394531 552.246094 C 424.695312 552.246094 423.117188 559.277344 423.117188 559.277344 L 425.179688 560.550781 C 425.179688 560.550781 426.785156 556.882812 433.394531 556.882812 C 438.609375 556.882812 441.730469 558.308594 441.730469 563.21875 L 441.730469 563.492188 C 439.882812 562.976562 434.484375 561.582031 429.300781 561.582031 C 425.089844 561.582031 421.148438 564.066406 421.148438 567.855469 C 421.148438 573.527344 428.152344 575.707031 433.394531 575.707031 C 437.246094 575.707031 439.519531 573.949219 441.730469 571.132812 L 442.0625 575.3125 L 449.398438 575.3125 C 449.398438 575.3125 446.519531 574.042969 446.519531 571.496094 Z M 433.394531 571.070312 C 429.789062 571.070312 425.542969 571.28125 425.542969 568.25 C 425.542969 562.644531 438.152344 565.25 441.457031 565.886719 C 440.882812 569.039062 437.941406 571.070312 433.394531 571.070312 Z M 433.394531 571.070312 " fill-opacity="1" fill-rule="nonzero"/><path fill="#ffffff" d="M 492.355469 575.285156 L 501.417969 575.285156 C 501.417969 575.285156 499.296875 574.042969 499.296875 571.496094 L 499.296875 563.765625 C 499.265625 557.371094 496.78125 552.246094 489.960938 552.246094 C 485.503906 552.246094 482.535156 555.21875 480.898438 559.460938 C 480.019531 555.21875 477.714844 552.246094 472.410156 552.246094 C 468.347656 552.246094 466.042969 554.703125 464.253906 558.429688 L 464.253906 552.671875 L 457.3125 552.671875 C 457.3125 552.671875 459.40625 553.914062 459.40625 556.488281 L 459.40625 571.433594 C 459.40625 574.011719 457.3125 575.285156 457.3125 575.285156 L 466.347656 575.285156 C 466.347656 575.285156 464.226562 574.042969 464.226562 571.496094 L 464.253906 563.675781 C 464.253906 560.21875 467.257812 556.882812 472.410156 556.882812 C 476.714844 556.882812 476.925781 560.523438 476.925781 563.339844 L 476.925781 571.433594 C 476.925781 574.011719 474.804688 575.285156 474.804688 575.285156 L 483.898438 575.285156 C 483.898438 575.285156 481.746094 574.042969 481.746094 571.496094 L 481.746094 563.765625 C 481.746094 563.765625 481.746094 563.765625 481.746094 563.703125 C 481.746094 560.339844 484.777344 556.882812 489.960938 556.882812 C 494.234375 556.882812 494.476562 560.308594 494.476562 563.339844 L 494.476562 571.433594 C 494.476562 574.011719 492.355469 575.285156 492.355469 575.285156 Z M 492.355469 575.285156 " fill-opacity="1" fill-rule="nonzero"/><path fill="#ffffff" d="M 509.734375 575.285156 L 518.796875 575.285156 C 518.796875 575.285156 516.675781 574.042969 516.675781 571.496094 L 516.707031 552.671875 L 509.734375 552.671875 C 509.734375 552.671875 511.828125 553.945312 511.828125 556.488281 L 511.828125 571.496094 C 511.828125 574.042969 509.734375 575.285156 509.734375 575.285156 Z M 514.128906 550.488281 C 515.859375 550.488281 516.675781 549.246094 516.675781 547.761719 C 516.675781 546.214844 515.859375 544.972656 514.128906 544.972656 C 512.613281 544.972656 511.828125 546.214844 511.828125 547.761719 C 511.828125 549.246094 512.613281 550.488281 514.128906 550.488281 Z M 514.128906 550.488281 " fill-opacity="1" fill-rule="nonzero"/><path fill="#ffffff" d="M 551.140625 565.582031 C 551.140625 565.582031 549.050781 571.070312 540.441406 571.070312 C 535.46875 571.070312 532.378906 568.371094 532.378906 563.976562 C 532.378906 559.25 534.800781 556.882812 540.289062 556.882812 C 545.472656 556.882812 548.382812 558.371094 548.382812 561.792969 L 553.203125 562.128906 C 553.203125 556.582031 547.046875 552.246094 540.441406 552.246094 C 532.742188 552.246094 527.527344 557.492188 527.527344 563.976562 C 527.527344 570.464844 533.257812 575.738281 540.441406 575.738281 C 550.6875 575.738281 553.234375 566.886719 553.234375 566.886719 Z M 551.140625 565.582031 " fill-opacity="1" fill-rule="nonzero"/><path fill="#ffffff" d="M 586.636719 559.1875 C 586.636719 557.582031 587.972656 556.882812 593.125 556.882812 C 598.367188 556.882812 599.882812 557.792969 599.882812 560.339844 L 604.703125 560.734375 C 604.703125 556.761719 600.914062 552.1875 593.125 552.1875 C 585.332031 552.1875 581.816406 556.761719 581.816406 559.1875 C 581.816406 567.464844 600.125 565.523438 600.125 568.917969 C 600.125 570.464844 597.914062 571.070312 593.277344 571.070312 C 589.214844 571.070312 586.089844 570.160156 586.089844 566.492188 L 581.300781 566.097656 C 581.300781 571.132812 586.425781 575.738281 593.277344 575.738281 C 602.734375 575.738281 604.914062 571.132812 604.914062 568.917969 C 604.914062 560.855469 586.636719 563.460938 586.636719 559.1875 Z M 586.636719 559.1875 " fill-opacity="1" fill-rule="nonzero"/><path fill="#ffffff" d="M 626.585938 557.308594 L 628.738281 552.671875 L 621.128906 552.671875 L 621.128906 545.578125 L 616.246094 545.578125 L 616.246094 552.671875 L 614.15625 552.671875 L 614.15625 557.308594 L 616.246094 557.308594 L 616.246094 575.285156 L 623.21875 575.285156 C 623.21875 575.285156 621.097656 574.042969 621.097656 571.496094 L 621.128906 557.308594 Z M 626.585938 557.308594 " fill-opacity="1" fill-rule="nonzero"/><path fill="#ffffff" d="M 660.484375 571.496094 L 660.484375 556.488281 C 660.484375 553.945312 662.574219 552.671875 662.574219 552.671875 L 653.570312 552.671875 C 653.570312 552.671875 655.691406 553.945312 655.691406 556.488281 L 655.664062 564.3125 C 655.664062 567.855469 653.148438 571.101562 647.539062 571.101562 C 643.539062 571.101562 642.933594 567.675781 642.933594 564.644531 L 642.933594 556.488281 C 642.933594 553.945312 645.054688 552.671875 645.054688 552.671875 L 636.050781 552.671875 C 636.050781 552.671875 638.140625 553.945312 638.140625 556.488281 L 638.140625 564.191406 C 638.203125 570.585938 641.324219 575.738281 647.539062 575.738281 C 651.601562 575.738281 653.84375 573.222656 655.664062 569.554688 L 655.664062 575.285156 L 662.574219 575.285156 C 662.574219 575.285156 660.484375 574.042969 660.484375 571.496094 Z M 660.484375 571.496094 " fill-opacity="1" fill-rule="nonzero"/><path fill="#ffffff" d="M 689.417969 575.3125 L 698.453125 575.3125 C 698.453125 575.3125 696.359375 574.042969 696.359375 571.496094 L 696.359375 542.726562 L 689.417969 542.726562 C 689.417969 542.726562 691.539062 544 691.539062 546.546875 L 691.539062 558.460938 C 689.75 554.761719 687.355469 552.246094 683.265625 552.246094 C 676.503906 552.246094 671.472656 557.492188 671.472656 563.976562 C 671.472656 570.464844 676.292969 575.707031 683.265625 575.707031 C 687.355469 575.707031 689.75 573.191406 691.539062 569.523438 C 691.539062 570.765625 691.539062 571.496094 691.539062 571.496094 C 691.539062 574.042969 689.417969 575.3125 689.417969 575.3125 Z M 683.265625 571.070312 C 679.324219 571.070312 676.261719 568.191406 676.261719 563.976562 C 676.261719 559.824219 679.171875 556.882812 683.265625 556.882812 C 689.328125 556.882812 691.539062 559.582031 691.539062 563.976562 C 691.539062 567.886719 689.359375 571.070312 683.265625 571.070312 Z M 683.265625 571.070312 " fill-opacity="1" fill-rule="nonzero"/><path fill="#ffffff" d="M 725.222656 552.671875 L 727.101562 553.429688 C 728.101562 553.914062 728.617188 555.097656 728.191406 556.125 L 722.402344 570.644531 L 720.644531 570.644531 L 714.824219 556.125 C 714.398438 555.097656 714.914062 553.914062 715.945312 553.429688 L 717.824219 552.671875 L 705.789062 552.671875 C 707.972656 553.703125 709.671875 555.488281 710.582031 557.734375 L 717.523438 575.285156 L 720.613281 575.285156 L 719.613281 577.707031 C 718.371094 580.832031 715.398438 582.832031 712.066406 582.832031 L 712.066406 585.257812 C 717.792969 585.257812 722.949219 581.769531 725.070312 576.4375 L 725.492188 575.3125 L 725.492188 575.285156 L 732.464844 557.734375 C 733.375 555.488281 735.074219 553.703125 737.285156 552.671875 Z M 725.222656 552.671875 " fill-opacity="1" fill-rule="nonzero"/><g clip-path="url(#b4f7eaac32)"><path fill="#daa520" d="M 578.605469 213.128906 L 622.269531 258.960938 C 525.097656 259.160156 477.9375 305.300781 477.9375 305.300781 C 477.9375 305.300781 501.777344 229.703125 578.605469 213.128906 " fill-opacity="1" fill-rule="nonzero"/></g><g clip-path="url(#d97fe2b016)"><path fill="#ffffff" d="M 629.160156 294.753906 C 565.191406 279.164062 518.488281 289.539062 495.019531 297.851562 C 514.117188 285.773438 549.238281 268.972656 600.953125 265.144531 L 629.160156 294.753906 " fill-opacity="1" fill-rule="nonzero"/></g><g clip-path="url(#cd5b02e949)"><path fill="#daa520" d="M 380.574219 209.644531 L 335.332031 253.90625 C 432.4375 257.527344 477.9375 305.300781 477.9375 305.300781 C 477.9375 305.300781 456.773438 228.914062 380.574219 209.644531 " fill-opacity="1" fill-rule="nonzero"/></g><g clip-path="url(#7b7bc6a287)"><path fill="#ffffff" d="M 327.1875 289.441406 C 391.660156 276.109375 437.96875 288.121094 461.136719 297.261719 C 442.480469 284.507812 407.960938 266.484375 356.414062 260.839844 L 327.1875 289.441406 " fill-opacity="1" fill-rule="nonzero"/></g><path fill="#ffffff" d="M 588.789062 186.507812 L 582.523438 202.890625 C 541.964844 211.105469 515.457031 236.726562 500.339844 256.808594 C 513.113281 233.558594 539.988281 198.0625 588.789062 186.507812 " fill-opacity="1" fill-rule="nonzero"/><path fill="#ffffff" d="M 368.746094 181.996094 L 374.472656 198.691406 C 416.191406 207.792969 442.554688 235.023438 457.265625 256.050781 C 445.101562 231.945312 418.789062 194.652344 368.746094 181.996094 " fill-opacity="1" fill-rule="nonzero"/><path fill="#ffffff" d="M 479.082031 240.386719 C 479.082031 240.386719 456.402344 200.085938 424.996094 190.484375 C 424.996094 190.484375 470.414062 229.625 478.019531 300.808594 C 488.128906 229.9375 534.894531 192.417969 534.894531 192.417969 C 503.164062 200.914062 479.082031 240.386719 479.082031 240.386719 " fill-opacity="1" fill-rule="nonzero"/><path fill="#ffffff" d="M 494.511719 202.011719 C 494.671875 193.015625 488.191406 185.605469 480.050781 185.460938 C 471.90625 185.316406 465.175781 192.492188 465.015625 201.496094 C 464.859375 210.492188 471.328125 217.902344 479.476562 218.046875 C 487.621094 218.191406 494.351562 211.015625 494.511719 202.011719 " fill-opacity="1" fill-rule="nonzero"/><path fill="#daa520" d="M 499.347656 148.09375 L 472.6875 147.625 L 472.214844 174.285156 L 498.875 174.753906 L 499.347656 148.09375 " fill-opacity="1" fill-rule="nonzero"/><path fill="#daa520" d="M 512.910156 135 L 499.582031 134.769531 L 499.347656 148.09375 L 512.675781 148.328125 L 512.910156 135 " fill-opacity="1" fill-rule="nonzero"/><path fill="#ffffff" d="M 539.222656 167.097656 L 525.898438 166.863281 L 525.664062 180.1875 L 538.988281 180.421875 L 539.222656 167.097656 " fill-opacity="1" fill-rule="nonzero"/><path fill="#ffffff" d="M 515.640625 161.710938 L 509.234375 161.605469 L 509.121094 168.007812 L 515.523438 168.121094 L 515.640625 161.710938 " fill-opacity="1" fill-rule="nonzero"/><path fill="#ffffff" d="M 578.414062 151.398438 L 566.125 151.175781 L 565.90625 163.476562 L 578.203125 163.6875 L 578.414062 151.398438 " fill-opacity="1" fill-rule="nonzero"/><path fill="#f8b31a" d="M 555.113281 179.503906 L 548.710938 179.390625 L 548.597656 185.792969 L 555 185.90625 L 555.113281 179.503906 " fill-opacity="1" fill-rule="nonzero"/><g clip-path="url(#24bf0989ab)"><path fill="#ffffff" d="M 539.34375 130.664062 L 529.742188 130.496094 L 529.566406 140.097656 L 539.175781 140.265625 L 539.34375 130.664062 " fill-opacity="1" fill-rule="nonzero"/></g><path fill="#f8b31a" d="M 550.785156 144.144531 L 541.078125 143.976562 L 540.910156 153.679688 L 550.613281 153.851562 L 550.785156 144.144531 " fill-opacity="1" fill-rule="nonzero"/><path fill="#ffffff" d="M 479.582031 397.527344 C 387.570312 397.527344 312.976562 322.9375 312.976562 230.921875 C 312.976562 138.910156 387.570312 64.316406 479.582031 64.316406 C 548.929688 64.316406 608.371094 106.6875 633.449219 166.957031 C 608.386719 95.5625 540.394531 44.371094 460.441406 44.371094 C 359.1875 44.371094 277.101562 126.449219 277.101562 227.703125 C 277.101562 328.960938 359.1875 411.039062 460.441406 411.039062 C 518.675781 411.039062 570.566406 383.878906 604.152344 341.539062 C 573.632812 375.882812 529.136719 397.527344 479.582031 397.527344 " fill-opacity="1" fill-rule="nonzero"/><g clip-path="url(#30d8012673)"><path fill="#daa520" d="M 481.113281 43.832031 C 582.554688 56.050781 654.886719 148.183594 642.671875 249.625 C 630.449219 351.066406 538.3125 423.390625 436.871094 411.175781 C 368.875 402.984375 313.953125 358.878906 288.816406 300.132812 C 314.265625 365.902344 374.261719 415.828125 449.164062 424.847656 C 557.234375 437.859375 655.402344 360.804688 668.414062 252.722656 C 681.433594 144.652344 604.371094 46.484375 496.292969 33.472656 C 421.398438 24.449219 351.261719 58.703125 310.929688 116.554688 C 349.292969 65.453125 413.113281 35.640625 481.113281 43.832031 " fill-opacity="1" fill-rule="nonzero"/></g><g clip-path="url(#f2e6d91fd8)"><path fill="#daa520" d="M 448.835938 24.152344 C 335.921875 37.753906 255.40625 140.316406 269.007812 253.238281 C 282.605469 366.160156 385.167969 446.671875 498.085938 433.078125 C 573.785156 423.960938 634.917969 374.851562 662.898438 309.460938 C 634.570312 382.675781 567.792969 438.253906 484.410156 448.292969 C 364.105469 462.78125 254.828125 377 240.339844 256.6875 C 225.851562 136.386719 311.636719 27.109375 431.9375 12.617188 C 515.320312 2.578125 593.390625 40.710938 638.289062 105.101562 C 595.582031 48.222656 524.535156 15.035156 448.835938 24.152344 " fill-opacity="1" fill-rule="nonzero"/></g></svg>