<?xml version="1.0" encoding="UTF-8"?> <svg xmlns="http://www.w3.org/2000/svg" xmlns:xlink="http://www.w3.org/1999/xlink" version="1.1" width="512" height="512" x="0" y="0" viewBox="0 0 16.933 16.933" style="enable-background:new 0 0 512 512" xml:space="preserve" class=""><g><path fill="#549ad4" d="M15.346 12.965V4.233a.792.792 0 0 0-.794-.793H1.322a.792.792 0 0 0-.793.793v8.732z" opacity="1" data-original="#549ad4"></path><g fill="#3588cb"><path d="m12.999 7.923 1.133 1.133c.06.06.1.13.125.204a1.45 1.45 0 0 0 1.089-.59V5.808a1.324 1.324 0 0 0-.452-.22l-.2-.054-.055-.015.068-.256a.528.528 0 1 0-1.022-.274l-.48 1.79s-.205.694-.502.996a.53.53 0 0 1 .296.148z" fill="#3588cb" opacity="1" data-original="#3588cb"></path><path d="M10.583 13.093H2.431l.673-3.697c.101-.635.63-.865 1.24-1.16l1.478-.691 1.057 1.058h.529l1.059-1.059 1.478.692c.313.15.81.45 1.033.631l1.439-1.122c.22-.194.54-.208.748 0l1.122 1.122a.532.532 0 0 1 0 .748l-2.072 1.981c-.657.657-1.265.71-1.632.182z" fill="#3588cb" opacity="1" data-original="#3588cb"></path><path d="M1.323 3.44a.792.792 0 0 0-.794.793v8.732h.794V5.027c0-.44.354-.794.794-.794h13.229a.792.792 0 0 0-.794-.793z" fill="#3588cb" opacity="1" data-original="#3588cb"></path><path d="M5.027 5.044V3.97c.479 0 .94-.34 1.058-.794.33.162.664.265 1.059.265.395 0 .728-.103 1.058-.265.119.455.58.794 1.058.794v1.075c0 1.163-.944 2.1-2.116 2.1a2.104 2.104 0 0 1-2.117-2.1z" fill="#3588cb" opacity="1" data-original="#3588cb"></path><path d="M8.996 5.92h.264a.794.794 0 1 0 0-1.587h-.265zM6.25 6.218h2.117v1.058l-.8.794h-.526l-.79-.794z" fill="#3588cb" opacity="1" data-original="#3588cb"></path><path d="M10.484 12.647H2.332l.673-3.697c.1-.635.63-.865 1.24-1.16L5.724 7.1 6.78 8.157h.529l1.058-1.059 1.479.692c.313.15.81.451 1.033.631L12.317 7.3c.22-.194.541-.208.749 0l1.122 1.122a.532.532 0 0 1 0 .749l-2.072 1.98c-.657.657-1.265.71-1.632.182z" fill="#3588cb" opacity="1" data-original="#3588cb"></path></g><path fill="#ffd1b5" d="M13.962 4.405a.528.528 0 0 0-.542.391l-.48 1.79s-.206.694-.505.994l.006.006c.106.015.209.06.293.144l1.132 1.134c.06.06.1.13.126.204.615-.045 1.137-.43 1.298-1.031l.274-1.022a1.32 1.32 0 0 0-.935-1.62l-.2-.054-.056-.015.069-.256a.528.528 0 0 0-.48-.665z" opacity="1" data-original="#ffd1b5"></path><path fill="#e4eff8" d="M6.085 14.552H9.79l.264 1.588H5.821z" opacity="1" data-original="#e4eff8"></path><path fill="#c4dcf0" d="M9.863 14.993c-.356.617-2.702.772-3.98.772l-.062.375h4.233z" opacity="1" data-original="#c4dcf0"></path><path fill="#e4eff8" d="M15.346 12.965v1.058c0 .44-.354.794-.794.794H1.322a.792.792 0 0 1-.793-.794v-1.058" opacity="1" data-original="#e4eff8"></path><path fill="#c4dcf0" d="M14.023 12.965C10.583 14.552 3.175 14.297.58 14.297c.112.303.4.52.743.52h13.23c.439 0 .793-.354.793-.794v-1.058z" opacity="1" data-original="#c4dcf0"></path><path fill="#e4eff8" d="M10.319 12.965H2.166L2.84 9.26c.1-.635.63-.865 1.24-1.16l1.477-.691 1.057 1.058h.53l1.058-1.059L9.68 8.1c.313.15.81.451 1.033.631l1.439-1.122c.22-.194.541-.208.748 0l1.123 1.122a.532.532 0 0 1 0 .749l-2.073 1.98c-.656.657-1.264.71-1.631.182z" opacity="1" data-original="#e4eff8"></path><path fill="#c4dcf0" d="m8.377 7.49-.976.977h-.529l-.53.525.534.533h-.004l-.53 3.44.794.793.794-.793-.529-3.44.53-.519.189.192 1.088-1.32z" opacity="1" data-original="#c4dcf0"></path><path fill="#ffb98d" d="M15.223 5.744c.121 1.691-1.1 2.295-1.966 2.51l.61.61c.06.06.1.13.125.204.615-.045 1.137-.429 1.298-1.031l.275-1.022a1.314 1.314 0 0 0-.342-1.27z" opacity="1" data-original="#ffb98d"></path><path fill="#c4dcf0" d="m2.19 12.836-.024.129h8.153v-1.323c.367.529.974.475 1.631-.182l2.073-1.98a.532.532 0 0 0 0-.749L12.9 7.61a.506.506 0 0 0-.247-.136c-1.736 4.912-10 5.336-10.463 5.363z" opacity="1" data-original="#c4dcf0"></path><path fill="#c4dcf0" d="m4.513 12.087-.266.78a.265.265 0 0 0-.013.098h.54l.239-.71a.266.266 0 0 0-.26-.352.268.268 0 0 0-.24.184z" opacity="1" data-original="#c4dcf0"></path><path fill="#427096" d="M4.23 10.318c-.352 0-.352.53 0 .53h1.057c.353 0 .353-.53 0-.53z" opacity="1" data-original="#427096" class=""></path><path fill="#c4dcf0" d="m6.085 14.552-.088.53h3.88l-.087-.53z" opacity="1" data-original="#c4dcf0"></path><path fill="#ffb98d" d="M14.474 6.996c.205-.766-.237-1.159-.237-1.159l.205-.767a.528.528 0 0 0-.63-.65.528.528 0 0 1 .39.651l-.207.767s.443.392.237 1.159z" opacity="1" data-original="#ffb98d"></path><path fill="#427096" d="m7.683 8.996-.804.79-.794-.794.525-.525h.533z" opacity="1" data-original="#427096" class=""></path><path fill="#365b7a" d="M7.309 8.629a2.105 2.105 0 0 1-.865.721l.19.19c.2 0 .395-.03.58-.083l.47-.461zM5.556 7.408h2.646v.53H5.556z" opacity="1" data-original="#365b7a"></path><path fill="#427096" d="m7.684 8.996-.805.79-.794-.794.53-.525h.529z" opacity="1" data-original="#427096" class=""></path><path fill="#365b7a" d="M7.325 8.644a2.1 2.1 0 0 1-.822.766l.236.235c.115-.009.227-.026.336-.052l.609-.597zM6.615 8.467l-.53.525.135.134.66-.66z" opacity="1" data-original="#365b7a"></path><path fill="#ffbd8d" d="M5.82 6.615h2.117v1.058l-.8.794h-.526l-.79-.794z" opacity="1" data-original="#ffbd8d"></path><path fill="#ffa465" d="M7.657 6.615A2.093 2.093 0 0 1 6.425 8.28l.185.186h.617l.71-.793V6.615z" opacity="1" data-original="#ffa465"></path><path fill="#ffb98d" d="M7.937 3.175V4.78c0 .98-.673 1.799-1.587 2.03A2.104 2.104 0 0 0 8.996 4.78v-.81c-.479 0-.94-.34-1.059-.794z" opacity="1" data-original="#ffb98d"></path><path fill="#427096" d="M4.233 4.498V3.44A2.64 2.64 0 0 1 6.88.794 2.64 2.64 0 0 1 9.525 3.44v1.058z" opacity="1" data-original="#427096" class=""></path><path fill="#6a98be" d="M5.79 2.231c-.151.151-.352.196-.448.1-.096-.097-.051-.297.1-.448.15-.151.351-.196.447-.1.096.097.052.297-.1.448z" opacity="1" data-original="#6a98be"></path><path fill="#365b7a" d="M6.35.846A2.64 2.64 0 0 1 8.467 3.44v1.058h1.058V3.44A2.64 2.64 0 0 0 6.35.846z" opacity="1" data-original="#365b7a"></path><path fill="#ffd1b5" d="M5.027 5.82h-.264a.794.794 0 1 1 0-1.587h.265z" opacity="1" data-original="#ffd1b5"></path><path fill="#ffb98d" d="M8.731 5.82h.265a.794.794 0 1 0 0-1.587H8.73z" opacity="1" data-original="#ffb98d"></path><path fill="#ffa465" d="M5.82 6.615v.512a2.124 2.124 0 0 0 2.118 0v-.512z" opacity="1" data-original="#ffa465"></path><path fill="#ffb98d" d="M4.763 4.762s-.092.644-.06 1.053c.02 0 .04.006.06.006h.264v-.926z" opacity="1" data-original="#ffb98d"></path><path fill="#ffd1b5" d="M4.763 5.044V3.97c.478 0 .939-.34 1.058-.794.33.162.663.265 1.058.265s.728-.103 1.059-.265c.118.455.579.794 1.058.794v1.075c0 1.163-.944 2.1-2.117 2.1a2.104 2.104 0 0 1-2.116-2.1z" opacity="1" data-original="#ffd1b5"></path><path fill="#ffb98d" d="M7.937 5.044c0 .981-.673 1.8-1.587 2.031a2.103 2.103 0 0 0 2.645-2.031V3.97c-.478 0-.939-.34-1.057-.794z" opacity="1" data-original="#ffb98d"></path><path fill="#6a98be" d="M6.14 1.727c-.06.04-.128.04-.153.002-.024-.038.004-.1.064-.14.06-.038.128-.039.152 0 .025.037-.003.1-.063.138z" opacity="1" data-original="#6a98be"></path><path fill="#427096" d="m4.736 7.792 1.16 1.406.718-.731-1.058-1.059zM9.022 7.792l-1.16 1.406-.718-.731 1.058-1.059z" opacity="1" data-original="#427096" class=""></path><path fill="#365b7a" d="M8.581 7.586c-.155.684-.597 1.178-.887 1.44l.169.172 1.16-1.406z" opacity="1" data-original="#365b7a"></path><path fill="#ffb98d" d="M5.82 3.175c-.118.455-.579.794-1.058.794v.264c.48 0 .94-.339 1.059-.793.33.161.663.264 1.058.264s.728-.103 1.059-.264c.118.454.58.793 1.058.793V3.97c-.479 0-.94-.34-1.058-.794-.331.162-.664.265-1.059.265-.395 0-.728-.103-1.058-.265z" opacity="1" data-original="#ffb98d"></path><path fill="#427096" d="m6.615 9.525-.53 3.44.794.793.793-.793-.528-3.44" opacity="1" data-original="#427096" class=""></path><path fill="#365b7a" d="M7.494 11.806c-.442.16-.862.274-1.291.392l-.117.765.794.794.791-.794z" opacity="1" data-original="#365b7a"></path><path fill="#e4eff8" d="M15.61 4.233c.44 0 .794-.354.794-.793V1.323a.792.792 0 0 0-.794-.794h-3.704a.792.792 0 0 0-.794.794v3.969l1.055-1.059z" paint-order="stroke fill markers" opacity="1" data-original="#e4eff8"></path><path fill="#c4dcf0" d="M16.1.702c-.589 1.77-3.424 2.866-4.988 3.346v1.244l1.055-1.059h3.443c.44 0 .794-.354.794-.793V1.323A.788.788 0 0 0 16.1.702z" opacity="1" data-original="#c4dcf0"></path><path fill="#427096" d="M12.965 2.381a.265.265 0 1 1-.53 0 .265.265 0 0 1 .53 0zM14.023 2.381a.265.265 0 1 1-.53 0 .265.265 0 0 1 .53 0zM15.081 2.381a.265.265 0 1 1-.529 0 .265.265 0 0 1 .53 0z" paint-order="stroke fill markers" opacity="1" data-original="#427096" class=""></path><path fill="#f5f9fb" d="M12.14 1.477c-.133.132-.307.171-.391.087-.084-.084-.045-.259.086-.39s.307-.17.39-.087c.085.084.046.259-.086.39z" opacity="1" data-original="#f5f9fb"></path><path fill="#365b7a" d="M14.984 2.176c-.13.106-.27.208-.412.306a.265.265 0 1 0 .412-.306z" opacity="1" data-original="#365b7a"></path><path fill="#e4eff8" d="M5.027 15.875c-.353 0-.353.529 0 .53h5.82c.354 0 .354-.53 0-.53z" opacity="1" data-original="#e4eff8"></path><path fill="#f5f9fb" d="M12.438 1.014c-.052.033-.111.034-.133 0-.021-.032.003-.087.055-.12.052-.034.112-.035.134-.002.021.033-.003.088-.056.122z" opacity="1" data-original="#f5f9fb"></path></g></svg> 