<?xml version="1.0" encoding="UTF-8"?> <svg xmlns="http://www.w3.org/2000/svg" xmlns:xlink="http://www.w3.org/1999/xlink" version="1.1" width="512" height="512" x="0" y="0" viewBox="0 0 64 64" style="enable-background:new 0 0 512 512" xml:space="preserve" class=""><g><g data-name="02-Recession"><path fill="#ffb74d" d="M51 59c0 1.105-2.686 2-6 2s-6-.895-6-2V43h12z" opacity="1" data-original="#ffb74d"></path><rect width="15.385" height="4" x="10.308" y="30" fill="#ffb74d" rx="2" opacity="1" data-original="#ffb74d"></rect><path fill="#ffa726" d="M25.69 32a1.997 1.997 0 0 1-2 2H19a2.015 2.015 0 0 0 2-2 2.006 2.006 0 0 0-2-2h4.69a2 2 0 0 1 2 2z" opacity="1" data-original="#ffa726"></path><g fill="#81c784"><path d="M23 34H13S3 41.23 3 52a9 9 0 0 0 9 9h12a9 9 0 0 0 9-9c0-10.77-10-18-10-18z" fill="#81c784" opacity="1" data-original="#81c784"></path><path d="M23 34H13S3 41.23 3 52a9 9 0 0 0 9 9h12a9 9 0 0 0 9-9c0-10.77-10-18-10-18z" fill="#81c784" opacity="1" data-original="#81c784"></path><path d="M23 34H13S3 41.23 3 52a9 9 0 0 0 9 9h12a9 9 0 0 0 9-9c0-10.77-10-18-10-18z" fill="#81c784" opacity="1" data-original="#81c784"></path></g><path fill="#66bb6a" d="M33 52a9 9 0 0 1-9 9H12a9.026 9.026 0 0 1-8.34-5.62A8.95 8.95 0 0 0 10 58h12a9 9 0 0 0 9-9 19.538 19.538 0 0 0-2.71-9.67A21.034 21.034 0 0 1 33 52z" opacity="1" data-original="#66bb6a"></path><path fill="#81c784" d="M24 21c-1.538 0-1.462 1-3 1s-1.462-1-3-1-1.615 1-3.154 1-1.308-1-2.846-1c-.77 0-2 .692-2 3a7.5 7.5 0 0 0 3 6h10a7.5 7.5 0 0 0 3-6c0-2.308-1.23-3-2-3z" opacity="1" data-original="#81c784"></path><path fill="#66bb6a" d="M33 52a9 9 0 0 1-9 9h-5a9 9 0 0 0 9-9 21.285 21.285 0 0 0-5-13.04A28.602 28.602 0 0 0 18 34h5a28.602 28.602 0 0 1 5 4.96A21.285 21.285 0 0 1 33 52zM26 24a7.5 7.5 0 0 1-3 6h-5a7.5 7.5 0 0 0 3-6 3.91 3.91 0 0 0-.47-2.04A2.227 2.227 0 0 0 21 22c1.54 0 1.46-1 3-1 .77 0 2 .69 2 3z" opacity="1" data-original="#66bb6a"></path><path fill="#ef5350" d="M60 18h-2a1 1 0 0 0-1 1v5L45 12.172a4 4 0 0 0-5.657 0L35 16.657 21 3l-3 3 14.172 13.828a4 4 0 0 0 5.656 0l4.344-4.485L54 27h-5a1 1 0 0 0-1 1v2a1 1 0 0 0 1 1h10a2 2 0 0 0 2-2V19a1 1 0 0 0-1-1z" opacity="1" data-original="#ef5350"></path><path fill="#e53935" d="M59 18v6.2a2.001 2.001 0 0 1-3.41 1.42L43.63 13.75a2.007 2.007 0 0 0-2.84.02l-4.39 4.47a2.013 2.013 0 0 1-2.83.02L19.52 4.48 21 3l14 13.66 4.34-4.49a4.008 4.008 0 0 1 5.66 0L57 24v-5a1.003 1.003 0 0 1 1-1z" opacity="1" data-original="#e53935"></path><path fill="#ffd54f" d="M39 59c0 1.105-2.686 2-6 2s-6-.895-6-2v-8h12z" opacity="1" data-original="#ffd54f"></path><path fill="#ffca28" d="M39 51v8c0 1.1-2.69 2-6 2s-6-.9-6-2v-1.655c4.248 2.26 9 1.521 9 .12V51z" opacity="1" data-original="#ffca28"></path><path fill="#ffa726" d="M51 43v16c0 1.1-2.69 2-6 2s-6-.9-6-2v-1.655c4.248 2.26 9 1.521 9 .12V43z" opacity="1" data-original="#ffa726"></path><path fill="#ffb74d" d="M39 51v4c0 1.1-2.69 2-6 2s-6-.9-6-2v-4z" opacity="1" data-original="#ffb74d"></path><path fill="#ffa726" d="M39 51v4c0 .74-1.21 1.38-3 1.73V51z" opacity="1" data-original="#ffa726"></path><ellipse cx="33" cy="51" fill="#ffd54f" rx="6" ry="2" opacity="1" data-original="#ffd54f"></ellipse><path fill="#eeeeee" d="M18.5 47h-1a1.5 1.5 0 0 1 0-3H21a1 1 0 0 0 0-2h-2v-1a1 1 0 0 0-2 0v1.05a3.492 3.492 0 0 0 .5 6.95h1a1.5 1.5 0 0 1 0 3H15a1 1 0 0 0 0 2h2v1a1 1 0 0 0 2 0v-1.05a3.492 3.492 0 0 0-.5-6.95z" opacity="1" data-original="#eeeeee"></path><path fill="#ffd54f" d="M51 43v4c0 1.1-2.69 2-6 2s-6-.9-6-2v-4zM51 51v4c0 1.1-2.69 2-6 2s-6-.9-6-2v-4c0 1.1 2.69 2 6 2s6-.9 6-2z" opacity="1" data-original="#ffd54f"></path><path fill="#ffca28" d="M51 43v4c0 .74-1.21 1.38-3 1.73V43zM51 51v4c0 .74-1.21 1.38-3 1.73v-4c1.79-.35 3-.99 3-1.73z" opacity="1" data-original="#ffca28"></path><ellipse cx="45" cy="43" fill="#ffb74d" rx="6" ry="2" opacity="1" data-original="#ffb74d"></ellipse></g></g></svg> 