<?xml version="1.0" encoding="UTF-8"?> <svg xmlns="http://www.w3.org/2000/svg" xmlns:xlink="http://www.w3.org/1999/xlink" version="1.1" width="512" height="512" x="0" y="0" viewBox="0 0 512 512" style="enable-background:new 0 0 512 512" xml:space="preserve" class=""><g><path d="M194.34 321.438c4.222 24.032 22.203 43.387 45.498 49.609v32.477c0 8.93 7.233 16.163 16.163 16.163 4.465 0 8.506-1.808 11.435-4.728a16.15 16.15 0 0 0 4.728-11.435v-32.477c23.294-6.223 41.275-25.577 45.498-49.609M286.305 310.549l50.508 17.536M175.187 328.085l50.508-17.536M80.23 437.57v-30.52c0-20.3 9.48-38.95 24.88-50.97" style="stroke-width:15;stroke-linecap:round;stroke-linejoin:round;stroke-miterlimit:10;" fill="none" stroke="#e9f6fb" stroke-width="15" stroke-linecap="round" stroke-linejoin="round" stroke-miterlimit="10" data-original="#000000" opacity="1" class=""></path><path d="M406.89 356.08c15.4 12.02 24.88 30.67 24.88 50.97v97.45H80.23v-31.93M286.305 274.365v36.184c0 16.738-13.566 30.305-30.305 30.305s-30.305-13.566-30.305-30.305v-36.184" style="stroke-width:15;stroke-linecap:round;stroke-linejoin:round;stroke-miterlimit:10;" fill="none" stroke="#e9f6fb" stroke-width="15" stroke-linecap="round" stroke-linejoin="round" stroke-miterlimit="10" data-original="#000000" opacity="1" class=""></path><path d="M336.813 199.431c0 44.632-36.181 80.813-80.813 80.813h0c-44.632 0-80.813-36.181-80.813-80.813M272.93 7.5h35.49c16.69 0 31.23 11.36 35.28 27.55l3.21 12.86M165.09 47.91l3.21-12.86c4.05-16.19 18.59-27.55 35.28-27.55h34.35M351.97 78.21l6.73 11.89a93.297 93.297 0 0 1 11.87 39.53L380.74 278c1.29 18.82 6.33 37.18 14.82 54.02l10.29 20.39c2.59 5.14.36 11.42-4.9 13.77l-49.91 22.31c-6.68 2.99-14.23-1.9-14.23-9.22v-77.72" style="stroke-width:15;stroke-linecap:round;stroke-linejoin:round;stroke-miterlimit:10;" fill="none" stroke="#e9f6fb" stroke-width="15" stroke-linecap="round" stroke-linejoin="round" stroke-miterlimit="10" data-original="#000000" opacity="1" class=""></path><path d="M160.03 78.21 153.3 90.1a93.297 93.297 0 0 0-11.87 39.53L131.26 278a141.469 141.469 0 0 1-14.82 54.02l-10.29 20.39c-2.59 5.14-.36 11.42 4.9 13.77l49.91 22.31c6.68 2.99 14.23-1.9 14.23-9.22V142.86c0-13.39 10.85-24.24 24.24-24.24h113.14c13.39 0 24.24 10.85 24.24 24.24v123.69" style="stroke-width:15;stroke-linecap:round;stroke-linejoin:round;stroke-miterlimit:10;" fill="none" stroke="#e9f6fb" stroke-width="15" stroke-linecap="round" stroke-linejoin="round" stroke-miterlimit="10" data-original="#000000" opacity="1" class=""></path><path d="M351.965 78.211h-191.93c-8.368 0-15.152-6.784-15.152-15.152v0c0-8.368 6.784-15.152 15.152-15.152h191.931c8.368 0 15.152 6.784 15.152 15.152v0c0 8.368-6.784 15.152-15.153 15.152zM256 419.687v44.388M361.057 504.5v-49.435l13.195-13.195M150.943 504.5v-49.435l-13.195-13.195" style="stroke-width:15;stroke-linecap:round;stroke-linejoin:round;stroke-miterlimit:10;" fill="none" stroke="#e9f6fb" stroke-width="15" stroke-linecap="round" stroke-linejoin="round" stroke-miterlimit="10" data-original="#000000" opacity="1" class=""></path></g></svg> 