<?xml version="1.0" encoding="UTF-8"?> <svg xmlns="http://www.w3.org/2000/svg" xmlns:xlink="http://www.w3.org/1999/xlink" version="1.1" width="512" height="512" x="0" y="0" viewBox="0 0 480.005 480.005" style="enable-background:new 0 0 512 512" xml:space="preserve" class=""><g><path d="M224.207 149.239a8 8 0 0 0-10.893-11.719c-14.814 13.771-23.311 33.263-23.311 53.479 0 40.252 32.748 73 73 73s73-32.748 73-73-32.748-73-73-73a8 8 0 0 0 0 16c31.43 0 57 25.57 57 57s-25.57 57-57 57-57-25.57-57-57c-.001-15.785 6.635-31.006 18.204-41.76z" fill="#e9f6fb" opacity="1" data-original="#000000" class=""></path><path d="M185.718 273.753c3.125 16.569 16.196 28.784 33.356 30.132 4.36.342 8.312 3.252 10.314 7.594 4.888 10.599 14.486 18.155 25.614 20.636V339a8 8 0 0 0 16 0v-6.884c11.128-2.481 20.727-10.037 25.613-20.636 2.003-4.342 5.955-7.252 10.314-7.595 14.94-1.173 30.043-11.777 33.39-30.136 18.374-2.146 32.683-17.808 32.683-36.75v-88a8 8 0 0 0-16 0v88c0 11.58-9.421 21-21 21h-3a8 8 0 0 0-8 8c0 13.404-9.722 21.181-19.324 21.935-10.126.795-19.166 7.25-23.592 16.846-3.423 7.423-10.914 12.22-19.084 12.22s-15.661-4.797-19.084-12.22c-4.424-9.596-13.464-16.051-23.592-16.846-9.603-.754-19.324-8.531-19.324-21.935a8 8 0 0 0-8-8h-3c-11.58 0-21-9.42-21-21v-88c0-11.58 9.42-21 21-21h3a8 8 0 0 0 8-8c0-13.404 9.721-21.18 19.324-21.935 10.128-.795 19.168-7.25 23.592-16.845C247.341 73.797 254.833 69 263.002 69s15.661 4.796 19.084 12.221c4.426 9.595 13.466 16.05 23.592 16.845 9.603.754 19.324 8.531 19.324 21.935a8 8 0 0 0 16 0c0-20.402-14.329-36.335-34.072-37.886-4.359-.342-8.312-3.252-10.314-7.594-4.887-10.599-14.486-18.156-25.613-20.637V47a8 8 0 0 0-16 0v6.884c-11.128 2.481-20.726 10.037-25.614 20.637-2.002 4.342-5.954 7.251-10.314 7.594-14.94 1.174-30.042 11.778-33.388 30.136-18.375 2.146-32.683 17.808-32.683 36.75v88c-.002 18.952 14.324 34.622 32.714 36.752z" fill="#e9f6fb" opacity="1" data-original="#000000" class=""></path><path d="M396.002 421a8 8 0 0 0 8-8v-31.528c10.841-2.307 19-11.954 19-23.472V24c0-13.233-10.767-24-24-24H165.647a8 8 0 0 0 0 16h233.355c4.411 0 8 3.589 8 8v334c0 4.411-3.589 8-8 8h-295c-11.87 0-22.719 4.432-31 11.717V47c0-17.093 13.907-31 31-31v307a8 8 0 0 0 16 0V8a8 8 0 0 0-8-8h-8c-25.916 0-47 21.084-47 47v366c0 25.916 21.084 47 47 47h22.677c0 13.29 12.564 22.701 25.204 19.307l16.119-4.329c17.216 4.623 17.837 5.027 21.375 5.027 10.687 0 19.947-8.649 19.947-19.944 0-.1-9.616-.061 201.677-.061a8 8 0 0 0 0-16H209.325v-23zm-202.677 39.061c0 2.591-2.5 4.48-5.054 3.793l-18.194-4.886a8.001 8.001 0 0 0-4.15 0l-18.194 4.886c-2.564.688-5.054-1.211-5.054-3.793V452a8 8 0 0 0-8-8h-30.677c-17.093 0-31-13.907-31-31s13.907-31 31-31h284v23H123.39a8 8 0 0 0 0 16h69.936v39.061z" fill="#e9f6fb" opacity="1" data-original="#000000" class=""></path></g></svg> 