<?xml version="1.0" encoding="UTF-8"?> <svg xmlns="http://www.w3.org/2000/svg" xmlns:xlink="http://www.w3.org/1999/xlink" version="1.1" width="512" height="512" x="0" y="0" viewBox="0 0 511.95 511.95" style="enable-background:new 0 0 512 512" xml:space="preserve" class=""><g><path d="M463.974 465.196c-.406-21.514-14.396-40.487-34.826-47.227l-7.424-2.455c11.583-22.24 5.9-45.346-12.958-64.069-7.291-7.244-11.296-17.268-11.279-28.137l.002-35.551c0-4.143-3.357-7.5-7.5-7.5s-7.5 3.357-7.5 7.5v35.231c-.082 15.049 5.506 28.969 15.705 39.097 32.454 32.068 5.152 63.61-29.37 79.889-68.009 33.499-203.251 33.558-258.493-23.646-7.347-8.479-11.073-17.322-11.073-26.285 0-10.307 4.886-20.386 14.521-29.958 10.152-10.087 15.73-23.898 15.705-38.977V141.529c0-33.907 13.224-65.759 37.235-89.688 79.451-79.565 216.009-21.592 215.77 91.144.001-.002.001 114.578.001 114.578.341 9.92 14.643 9.944 15 0v-114.58c.283-125.911-152.566-190.769-241.36-101.766-26.856 26.762-41.646 62.387-41.646 100.311-.047.194.033 181.507.001 181.693.018 10.957-3.987 20.98-11.278 28.224-18.825 18.69-24.53 41.753-13.012 63.964l-7.507 2.506c-18.899 6.299-32.409 23.162-34.413 42.897-.498 1.997-.23 40.458-.287 43.637 0 4.143 3.357 7.5 7.5 7.5s7.5-3.357 7.5-7.5V466.07c-.044-15.239 9.928-29.161 24.445-33.926l11.634-3.883c63.179 68.761 250.415 68.801 313.75.106l11.628 3.844c14.456 4.766 24.33 18.237 24.537 33.461.007.169.005.33.005.498v38.278c.332 9.909 14.655 9.942 15 0V466.17a31.633 31.633 0 0 0-.013-.974z" fill="#e9f6fb" opacity="1" data-original="#000000" class=""></path><path d="M363.232 233.995V179.11c-5.893-142.273-208.618-142.241-214.492.001v54.884c0 17.852 4.478 35.53 12.948 51.125a7.501 7.501 0 0 0 13.182-7.16c-7.281-13.403-11.13-28.606-11.13-43.965V179.11c0-5.858.555-11.588 1.604-17.145 47.889-48.728 132.524-49.244 181.055-1.187a92.309 92.309 0 0 1 1.833 18.333v54.885c.16 82.488-101.961 123.594-158.8 63.873a7.5 7.5 0 0 0-10.82 10.389c66.101 69.44 184.815 21.611 184.62-74.263zM256.49 109.834c-29.413 0-57.466 8.662-81.286 24.781 34.247-62.869 125.938-63.447 160.979-1.046-23.494-15.44-50.987-23.735-79.693-23.735z" fill="#e9f6fb" opacity="1" data-original="#000000" class=""></path><path d="M212.324 173.353c-12.126.547-19.555 8.37-21.543 10.755-6.088 7.833 4.887 17.015 11.522 9.605.708-.85 4.55-5.099 10.697-5.376 7.035-.342 11.557 4.802 12.047 5.388 6.624 7.389 17.616-1.791 11.502-9.629-1.594-1.903-10.268-11.368-24.225-10.743zM279.394 194.671a7.501 7.501 0 0 0 10.563-.958c.708-.85 4.55-5.099 10.698-5.376 7.028-.342 11.557 4.802 12.047 5.388a7.5 7.5 0 1 0 11.502-9.628c-1.594-1.903-10.271-11.368-24.225-10.743-12.127.547-19.556 8.37-21.544 10.755a7.5 7.5 0 0 0 .959 10.562zM232.641 259.856a7.5 7.5 0 0 0-11.748 9.326c2.247 2.831 14.5 16.95 35.093 16.95s32.846-14.119 35.093-16.95a7.5 7.5 0 0 0-11.748-9.326c-12.272 14.958-34.516 14.861-46.69 0zM255.171 396.508c-8.814 2.875-26.638 6.819-46.974.934-11.906-3.446-23.046-9.817-32.215-18.426a7.5 7.5 0 0 0-10.268 10.936c10.891 10.224 24.139 17.796 38.313 21.898 9.188 2.659 17.937 3.635 25.826 3.635 12.888 0 23.486-2.602 29.97-4.717 9.317-3.393 4.909-17.015-4.652-14.26z" fill="#e9f6fb" opacity="1" data-original="#000000" class=""></path></g></svg> 