<?xml version="1.0" encoding="UTF-8"?> <svg xmlns="http://www.w3.org/2000/svg" xmlns:xlink="http://www.w3.org/1999/xlink" version="1.1" width="512" height="512" x="0" y="0" viewBox="0 0 512 512" style="enable-background:new 0 0 512 512" xml:space="preserve" class=""><g><path fill="#9a99a1" d="M76 136.5h360a30 30 0 0 1 30 30v280a40 40 0 0 1-40 40H86a40 40 0 0 1-40-40v-280a30 30 0 0 1 30-30z" opacity="1" data-original="#9a99a1"></path><path fill="#84828e" d="M66 138.22v342.93a39.99 39.99 0 0 1-20-34.65v-280a29.979 29.979 0 0 1 20-28.28z" opacity="1" data-original="#84828e"></path><rect width="270" height="340" x="121" y="141.5" fill="#e6f0f6" rx="10" transform="rotate(90 256 311.5)" opacity="1" data-original="#e6f0f6"></rect><path fill="#aacfe2" d="M106 176.5v270H96a10 10 0 0 1-10-10v-250a10 10 0 0 1 10-10z" opacity="1" data-original="#aacfe2"></path><path fill="#84828e" d="M35.5 426.5h441a10 10 0 0 1 10 10v10a40 40 0 0 1-40 40h-381a40 40 0 0 1-40-40v-10a10 10 0 0 1 10-10z" opacity="1" data-original="#84828e"></path><path fill="#9a99a1" d="M206 426.5h100v20a10 10 0 0 1-10 10h-80a10 10 0 0 1-10-10v-20z" opacity="1" data-original="#9a99a1"></path><path fill="#787780" d="M472.94 476.5a39.845 39.845 0 0 1-26.44 10h-381a40 40 0 0 1-40-40v-10a10 10 0 0 1 10-10h20v30a20 20 0 0 0 20 20z" opacity="1" data-original="#787780"></path><circle cx="256" cy="155.5" r="130" fill="#54c1ed" opacity="1" data-original="#54c1ed" class=""></circle><g fill="#e6f0f6"><path d="M386 155.5q0 3.78-.21 7.5H126.21q-.21-3.72-.21-7.5t.21-7.5h259.58q.21 3.72.21 7.5zM359.81 77.24a7.016 7.016 0 0 1-1.75 1.05C332.38 89.16 295.18 95.4 256 95.4s-76.38-6.24-102.06-17.11a7.016 7.016 0 0 1-1.75-1.05 129.379 129.379 0 0 1 10.03-11.76c23.8 9.5 57.77 14.92 93.78 14.92s69.98-5.42 93.78-14.92a129.379 129.379 0 0 1 10.03 11.76zM359.81 233.76a129.379 129.379 0 0 1-10.03 11.76c-23.8-9.5-57.77-14.92-93.78-14.92s-69.98 5.42-93.78 14.92a129.379 129.379 0 0 1-10.03-11.76 7.016 7.016 0 0 1 1.75-1.05c25.68-10.87 62.88-17.11 102.06-17.11s76.38 6.24 102.06 17.11a7.016 7.016 0 0 1 1.75 1.05z" fill="#e6f0f6" opacity="1" data-original="#e6f0f6"></path><path d="M256 285.2c-17.088 0-32.6-14.331-43.671-40.355-10.207-23.988-15.829-55.718-15.829-89.345s5.622-65.357 15.829-89.345C223.4 40.131 238.912 25.8 256 25.8s32.6 14.331 43.671 40.355C309.878 90.143 315.5 121.873 315.5 155.5s-5.622 65.357-15.829 89.345C288.6 270.869 273.088 285.2 256 285.2zm0-244.4c-21.048 0-44.5 47.105-44.5 114.7 0 31.655 5.2 61.3 14.632 83.472C234.577 258.818 245.463 270.2 256 270.2c21.048 0 44.5-47.1 44.5-114.7 0-31.655-5.2-61.3-14.632-83.472C277.423 52.182 266.537 40.8 256 40.8z" fill="#e6f0f6" opacity="1" data-original="#e6f0f6"></path><path d="M386 155.5q0 3.78-.21 7.5H126.21q-.21-3.72-.21-7.5t.21-7.5h259.58q.21 3.72.21 7.5zM359.81 77.24a7.016 7.016 0 0 1-1.75 1.05C332.38 89.16 295.18 95.4 256 95.4s-76.38-6.24-102.06-17.11a7.016 7.016 0 0 1-1.75-1.05 129.379 129.379 0 0 1 10.03-11.76c23.8 9.5 57.77 14.92 93.78 14.92s69.98-5.42 93.78-14.92a129.379 129.379 0 0 1 10.03 11.76zM359.81 233.76a129.379 129.379 0 0 1-10.03 11.76c-23.8-9.5-57.77-14.92-93.78-14.92s-69.98 5.42-93.78 14.92a129.379 129.379 0 0 1-10.03-11.76 7.016 7.016 0 0 1 1.75-1.05c25.68-10.87 62.88-17.11 102.06-17.11s76.38 6.24 102.06 17.11a7.016 7.016 0 0 1 1.75 1.05z" fill="#e6f0f6" opacity="1" data-original="#e6f0f6"></path><path d="M256 285.2c-17.088 0-32.6-14.331-43.671-40.355-10.207-23.988-15.829-55.718-15.829-89.345s5.622-65.357 15.829-89.345C223.4 40.131 238.912 25.8 256 25.8s32.6 14.331 43.671 40.355C309.878 90.143 315.5 121.873 315.5 155.5s-5.622 65.357-15.829 89.345C288.6 270.869 273.088 285.2 256 285.2zm0-244.4c-21.048 0-44.5 47.105-44.5 114.7 0 31.655 5.2 61.3 14.632 83.472C234.577 258.818 245.463 270.2 256 270.2c21.048 0 44.5-47.1 44.5-114.7 0-31.655-5.2-61.3-14.632-83.472C277.423 52.182 266.537 40.8 256 40.8z" fill="#e6f0f6" opacity="1" data-original="#e6f0f6"></path></g><path fill="#17afde" d="M271 284.64a130 130 0 1 1 0-258.28 130.009 130.009 0 0 0 0 258.28z" opacity="1" data-original="#17afde"></path><path fill="#e6f0f6" d="M385.79 163q.21-3.72.21-7.5t-.21-7.5H315.4a260.14 260.14 0 0 0-7.33-56.436c19.009-2.917 36.172-7.423 49.994-13.274a7.016 7.016 0 0 0 1.75-1.05 129.379 129.379 0 0 0-10.03-11.76c-12.8 5.111-28.554 9.038-45.98 11.579-1.282-3.779-2.652-7.432-4.129-10.9C288.6 40.131 273.088 25.8 256 25.8s-32.6 14.331-43.671 40.355c-1.477 3.472-2.847 7.125-4.129 10.9-17.426-2.541-33.176-6.468-45.98-11.579a129.379 129.379 0 0 0-10.03 11.76 7.016 7.016 0 0 0 1.75 1.05c13.822 5.851 30.985 10.357 49.994 13.274A260.14 260.14 0 0 0 196.6 148h-70.39q-.21 3.72-.21 7.5t.21 7.5h70.39a260.14 260.14 0 0 0 7.33 56.436c-19.009 2.917-36.172 7.423-49.994 13.274a7.016 7.016 0 0 0-1.75 1.05 129.379 129.379 0 0 0 10.03 11.76c12.8-5.111 28.554-9.038 45.98-11.579 1.282 3.779 2.652 7.432 4.129 10.9C223.4 270.869 238.912 285.2 256 285.2s32.6-14.331 43.671-40.355c1.477-3.472 2.847-7.125 4.129-10.9 17.426 2.541 33.176 6.468 45.98 11.579a129.379 129.379 0 0 0 10.03-11.76 7.016 7.016 0 0 0-1.75-1.05c-13.822-5.851-30.985-10.357-49.994-13.274A260.14 260.14 0 0 0 315.4 163zM256 40.8c10.537 0 21.423 11.382 29.868 31.228a139.103 139.103 0 0 1 2.679 6.858c-10.5 1-21.423 1.514-32.547 1.514s-22.036-.518-32.523-1.512C232.2 54.959 244.461 40.8 256 40.8zm-37.065 52.693A357.153 357.153 0 0 0 256 95.4a356.9 356.9 0 0 0 37.081-1.909A242.342 242.342 0 0 1 300.39 148H211.6a240.469 240.469 0 0 1 7.335-54.507zM256 270.2c-10.537 0-21.423-11.382-29.868-31.228a139.103 139.103 0 0 1-2.679-6.858c10.5-1 21.423-1.514 32.547-1.514s22.036.518 32.523 1.512C279.8 256.041 267.539 270.2 256 270.2zm37.065-52.693a361.124 361.124 0 0 0-74.146 0A242.342 242.342 0 0 1 211.61 163h88.79a240.469 240.469 0 0 1-7.335 54.507z" opacity="1" data-original="#e6f0f6"></path><path fill="#54c1ed" d="M208.18 77.06c-7.87-1.15-15.41-2.58-22.47-4.28a130.362 130.362 0 0 1 44.17-34.57c-6.6 6.74-12.53 16.14-17.55 27.94q-2.22 5.22-4.15 10.91zM223.48 78.89C232.2 54.96 244.46 40.8 256 40.8c10.54 0 21.42 11.38 29.87 31.23q1.41 3.315 2.69 6.85c-10.5 1-21.43 1.52-32.56 1.52s-22.03-.52-32.52-1.51zM212.33 244.85c5.02 11.8 10.95 21.2 17.55 27.94a130.362 130.362 0 0 1-44.17-34.57c7.06-1.7 14.6-3.13 22.47-4.28q1.92 5.685 4.15 10.91zM256 270.2c-10.54 0-21.42-11.38-29.87-31.23q-1.41-3.315-2.69-6.85c10.5-1 21.43-1.52 32.56-1.52 11.11 0 22.03.52 32.52 1.51-8.72 23.93-20.98 38.09-32.52 38.09z" opacity="1" data-original="#54c1ed" class=""></path><path fill="#efdbc6" d="M156 155.5q0 3.78.21 7.5h-30q-.21-3.72-.21-7.5t.21-7.5h30q-.21 3.72-.21 7.5zM185.71 72.78a131.058 131.058 0 0 0-9.48 13.04 171.889 171.889 0 0 1-22.29-7.53 7.016 7.016 0 0 1-1.75-1.05 129.379 129.379 0 0 1 10.03-11.76 171.01 171.01 0 0 0 23.49 7.3zM185.71 238.22a171.01 171.01 0 0 0-23.49 7.3 129.379 129.379 0 0 1-10.03-11.76 7.016 7.016 0 0 1 1.75-1.05 171.889 171.889 0 0 1 22.29-7.53 131.058 131.058 0 0 0 9.48 13.04zM256 25.8c-9.34 0-18.21 4.28-26.12 12.41a128.831 128.831 0 0 1 35.18-11.03A30.4 30.4 0 0 0 256 25.8zm0 259.4a30.4 30.4 0 0 0 9.06-1.38 128.831 128.831 0 0 1-35.18-11.03c7.91 8.13 16.78 12.41 26.12 12.41z" opacity="1" data-original="#efdbc6"></path><path fill="#ffb155" d="m274.343 323.01 37.056-31.106 55.323 65.906a10.715 10.715 0 0 1-1.317 15.096l-20.643 17.328a10.715 10.715 0 0 1-15.096-1.318l-55.323-65.906z" opacity="1" data-original="#ffb155"></path><path fill="#f19b40" d="m282.5 316.207 62.188 74.112A10.714 10.714 0 0 1 329.594 389l-55.3-65.9z" opacity="1" data-original="#f19b40"></path><path fill="#ffb155" d="m353.236 286.341-97.154-29.572a5.357 5.357 0 0 0-6.878 5.771l12.252 100.814a5.357 5.357 0 0 0 9.756 2.353l31.417-46.482 51.231-22.868a5.357 5.357 0 0 0-.624-10.016z" opacity="1" data-original="#ffb155"></path><path fill="#f19b40" d="m257.605 257.236 13.245 108.942a5.358 5.358 0 0 1-9.332-2.421l-.029-.185a1.911 1.911 0 0 1-.034-.224L249.2 262.539c0-.015-.006-.024 0-.046a5.339 5.339 0 0 1 6.821-5.737c.015 0 .037.01.052.012z" opacity="1" data-original="#f19b40"></path><path fill="#aacfe2" d="M213.035 360.5h-80a7.5 7.5 0 1 1 0-15h80a7.5 7.5 0 0 1 0 15zM213.035 390.5h-80a7.5 7.5 0 1 1 0-15h80a7.5 7.5 0 0 1 0 15zM213.035 330.5h-36a7.5 7.5 0 1 1 0-15h36a7.5 7.5 0 0 1 0 15zM150.035 330.5h-17a7.5 7.5 0 1 1 0-15h17a7.5 7.5 0 0 1 0 15z" opacity="1" data-original="#aacfe2"></path></g></svg> 