<?xml version="1.0" encoding="UTF-8"?> <svg xmlns="http://www.w3.org/2000/svg" xmlns:xlink="http://www.w3.org/1999/xlink" version="1.1" width="512" height="512" x="0" y="0" viewBox="0 0 512 512" style="enable-background:new 0 0 512 512" xml:space="preserve" class=""><g><path fill="#fdc8a2" d="M408 256v48h-96v-48a15.989 15.989 0 0 0 16-16v-16h64v16a15.979 15.979 0 0 0 16 16z" opacity="1" data-original="#fdc8a2"></path><path fill="#fdbf92" d="M393.27 246.24a76.106 76.106 0 0 1-68.31 3.15A15.959 15.959 0 0 0 328 240v-16h64v16a15.851 15.851 0 0 0 1.27 6.24z" opacity="1" data-original="#fdbf92"></path><path fill="#de5540" d="M243.931 286.173 224 336h64v120h144V336h56v-32a48 48 0 0 0-48-48h-32l-8.974 11.965A50.087 50.087 0 0 1 358.956 288a50.088 50.088 0 0 1-44.8-27.688L312 256h-23.5a48 48 0 0 0-44.569 30.173z" opacity="1" data-original="#de5540"></path><path fill="#d64a34" d="M424 304h16v32h-16zM360 328a88.122 88.122 0 0 1-44-11.79l8-13.856a72 72 0 0 0 67.384 2.446l6.975 14.4A88.508 88.508 0 0 1 360 328z" opacity="1" data-original="#d64a34"></path><path fill="#fdc8a2" d="M240 456h-64l48-120h64z" opacity="1" data-original="#fdc8a2"></path><path fill="#fdb683" d="M432 176h-16v-48h16a24 24 0 0 1 24 24 24 24 0 0 1-24 24zM280 128h16v48h-16a24 24 0 0 1-24-24 24 24 0 0 1 24-24z" opacity="1" data-original="#fdb683"></path><path fill="#fdc8a2" d="M328 64h56a48 48 0 0 1 48 48v52a76 76 0 0 1-76 76 76 76 0 0 1-76-76v-52a48 48 0 0 1 48-48z" opacity="1" data-original="#fdc8a2"></path><path fill="#7d4a38" d="m432 128-17.642-5.881A44.4 44.4 0 0 1 384 80V40a48 48 0 0 1 48 48z" opacity="1" data-original="#7d4a38"></path><path fill="#844e3a" d="M384 40v40a190.267 190.267 0 0 1-50.48 23.83 190.5 190.5 0 0 1-55.21 8.17H264V88a64 64 0 0 1 64-64h30.11A28.939 28.939 0 0 1 384 40z" opacity="1" data-original="#844e3a"></path><path fill="#784533" d="M365.66 61.66c-1.06 1.06-26.84 26.08-100.78 34.29l-.88.08V88a63.749 63.749 0 0 1 .51-8.11c34.56-3.98 57.09-11.75 69.96-17.61 14.05-6.4 19.87-11.93 19.92-11.99zM323.58 55.16C322.86 55.52 305.5 64 272 64l-3.28-.16a63.153 63.153 0 0 1 9.4-15.94c25.29-.89 38.21-7.01 38.35-7.08z" opacity="1" data-original="#784533"></path><path fill="#844e3a" d="M320 160a16 16 0 1 1 16-16 16.019 16.019 0 0 1-16 16zM384 160a16 16 0 1 1 16-16 16.019 16.019 0 0 1-16 16z" opacity="1" data-original="#844e3a"></path><path fill="#fcb079" d="M352 192.021a51.957 51.957 0 0 1-28.363-8.408l8.726-13.411a36.026 36.026 0 0 0 39.274 0l8.726 13.411A51.957 51.957 0 0 1 352 192.021z" opacity="1" data-original="#fcb079"></path><path fill="#844e3a" d="M24 456h464v32H24z" opacity="1" data-original="#844e3a"></path><rect width="272" height="192" x="24" y="200" fill="#d5d5d3" rx="24" opacity="1" data-original="#d5d5d3" class=""></rect><g fill="#c6c6c4"><path d="M96 232h32v16H96zM144 232h32v16h-32zM192 232h32v16h-32zM240 232h32v16h-32zM48 232h32v16H48z" fill="#c6c6c4" opacity="1" data-original="#c6c6c4" class=""></path></g><path fill="#cececc" d="M160 392h32l-8-48h-24z" opacity="1" data-original="#cececc"></path><path fill="#d5d5d3" d="M112 424h96v32h-96z" opacity="1" data-original="#d5d5d3" class=""></path><path fill="#dfdfdd" d="M160 456H80l48-112h56z" opacity="1" data-original="#dfdfdd"></path><path fill="#d5d5d3" d="M240 424h96v32h-96z" opacity="1" data-original="#d5d5d3" class=""></path><path fill="#fdc8a2" d="M432 336v64H328a32 32 0 0 0-32 32v16a8 8 0 0 0 8 8h128a56 56 0 0 0 56-56v-64z" opacity="1" data-original="#fdc8a2"></path></g></svg> 